<svg width="67" height="67" viewBox="0 0 67 67" fill="none" xmlns="http://www.w3.org/2000/svg">
<path d="M41.4496 8.35579L44.1063 3.563C44.1403 3.50151 44.162 3.43391 44.1699 3.36406C44.1779 3.2942 44.172 3.22347 44.1527 3.15589C44.1333 3.0883 44.1008 3.0252 44.057 2.97018C44.0133 2.91515 43.9591 2.86929 43.8976 2.8352C43.7734 2.76636 43.627 2.74967 43.4905 2.7888C43.354 2.82793 43.2386 2.91968 43.1698 3.04386L40.4837 7.88976C38.1919 6.88506 35.7167 6.36634 33.2143 6.36634C30.7119 6.36634 28.2367 6.88506 25.9449 7.88976L23.2587 3.04386C23.1899 2.91968 23.0745 2.82793 22.9381 2.7888C22.8016 2.74967 22.6551 2.76636 22.5309 2.8352C22.4068 2.90405 22.315 3.0194 22.2759 3.15589C22.2368 3.29237 22.2534 3.43882 22.3223 3.563L24.979 8.35582C22.4501 9.60238 20.3134 11.5213 18.8031 13.9022C17.2929 16.2831 16.4675 19.0338 16.4176 21.8528H50.0111C49.9611 19.0338 49.1357 16.283 47.6255 13.9022C46.1153 11.5213 43.9785 9.60235 41.4496 8.35579V8.35579ZM25.4618 15.7061C25.1844 15.7061 24.9132 15.6238 24.6825 15.4697C24.4518 15.3156 24.272 15.0965 24.1658 14.8402C24.0597 14.5838 24.0319 14.3018 24.086 14.0297C24.1401 13.7576 24.2737 13.5076 24.4699 13.3115C24.6661 13.1153 24.916 12.9817 25.1881 12.9276C25.4603 12.8734 25.7423 12.9012 25.9986 13.0074C26.2549 13.1136 26.474 13.2934 26.6282 13.524C26.7823 13.7547 26.8646 14.0259 26.8646 14.3034C26.8641 14.6753 26.7162 15.0318 26.4532 15.2948C26.1903 15.5578 25.8337 15.7057 25.4618 15.7061V15.7061ZM40.9667 15.7061C40.6893 15.7061 40.4181 15.6238 40.1874 15.4697C39.9567 15.3156 39.7769 15.0965 39.6708 14.8402C39.5646 14.5838 39.5368 14.3018 39.5909 14.0297C39.6451 13.7576 39.7787 13.5076 39.9748 13.3115C40.171 13.1153 40.421 12.9817 40.6931 12.9276C40.9652 12.8734 41.2472 12.9012 41.5035 13.0074C41.7599 13.1136 41.9789 13.2934 42.1331 13.524C42.2872 13.7547 42.3695 14.0259 42.3695 14.3034C42.3691 14.6753 42.2211 15.0318 41.9582 15.2948C41.6952 15.5578 41.3386 15.7057 40.9667 15.7061V15.7061ZM16.4173 47.5281C16.4173 48.6051 16.8452 49.638 17.6067 50.3996C18.3683 51.1611 19.4012 51.589 20.4781 51.589H23.1729V59.8951C23.1716 60.3905 23.268 60.8813 23.4566 61.3393C23.6453 61.7973 23.9224 62.2137 24.2722 62.5644C24.622 62.9151 25.0376 63.1934 25.4951 63.3833C25.9526 63.5732 26.4431 63.6709 26.9385 63.6709C27.4338 63.6709 27.9243 63.5732 28.3818 63.3833C28.8394 63.1934 29.2549 62.9151 29.6047 62.5644C29.9545 62.2137 30.2317 61.7973 30.4203 61.3393C30.609 60.8813 30.7054 60.3905 30.704 59.8951V51.589H35.7245V59.8951C35.7232 60.3905 35.8196 60.8813 36.0082 61.3393C36.1969 61.7973 36.474 62.2137 36.8238 62.5644C37.1736 62.9151 37.5892 63.1934 38.0467 63.3833C38.5042 63.5732 38.9947 63.6709 39.4901 63.6709C39.9854 63.6709 40.4759 63.5732 40.9334 63.3833C41.391 63.1934 41.8065 62.9151 42.1563 62.5644C42.5061 62.2137 42.7833 61.7973 42.9719 61.3393C43.1605 60.8813 43.2569 60.3905 43.2556 59.8951V51.589H45.9505C47.0275 51.589 48.0604 51.1611 48.8219 50.3996C49.5835 49.638 50.0113 48.6051 50.0113 47.5281V23.1817H16.4173V47.5281ZM11.249 22.5357C10.2506 22.5368 9.29352 22.9339 8.58759 23.6398C7.88166 24.3457 7.48458 25.3029 7.48345 26.3012V41.9907C7.48211 42.486 7.57851 42.9768 7.76715 43.4348C7.95578 43.8929 8.23294 44.3092 8.58274 44.6599C8.93253 45.0107 9.3481 45.289 9.80562 45.4788C10.2631 45.6687 10.7536 45.7665 11.249 45.7665C11.7444 45.7665 12.2348 45.6687 12.6924 45.4788C13.1499 45.289 13.5655 45.0107 13.9153 44.6599C14.265 44.3092 14.5422 43.8929 14.7308 43.4348C14.9195 42.9768 15.0159 42.486 15.0145 41.9907V26.3012C15.0134 25.3029 14.6163 24.3457 13.9104 23.6398C13.2044 22.9339 12.2473 22.5368 11.249 22.5357V22.5357ZM55.1796 22.5357C54.1812 22.5368 53.2241 22.9339 52.5182 23.6398C51.8122 24.3457 51.4151 25.3029 51.414 26.3012V41.9907C51.4127 42.486 51.5091 42.9768 51.6977 43.4348C51.8863 43.8929 52.1635 44.3092 52.5133 44.6599C52.8631 45.0107 53.2786 45.289 53.7362 45.4788C54.1937 45.6687 54.6842 45.7665 55.1795 45.7665C55.6749 45.7665 56.1654 45.6687 56.6229 45.4788C57.0804 45.289 57.496 45.0107 57.8458 44.6599C58.1956 44.3092 58.4728 43.8929 58.6614 43.4348C58.85 42.9768 58.9464 42.486 58.9451 41.9907V26.3012C58.944 25.3029 58.5469 24.3457 57.8409 23.6398C57.135 22.9339 56.1779 22.5368 55.1796 22.5357V22.5357Z" fill="black"/>
</svg>
