<svg width="666" height="457" viewBox="0 0 666 457" fill="none" xmlns="http://www.w3.org/2000/svg">
<path fill-rule="evenodd" clip-rule="evenodd" d="M561.2 171.308C562.469 172.471 563.565 173.804 564.46 175.274L569.398 174.773L571.551 182.446L567.177 184.985C567.188 186.74 566.96 188.504 566.5 190.227L570.133 193.311L566.055 200.548L561.329 199.393C560.074 200.717 558.654 201.878 557.107 202.845L557.304 207.706L549.382 210.298L547.116 206.1C545.311 206.204 543.515 206.063 541.779 205.68L538.426 209.468L531.379 205.88L532.837 201.139C531.565 199.978 530.469 198.644 529.577 197.173L524.64 197.663L522.487 189.99L526.851 187.45C526.865 185.672 527.117 183.89 527.601 182.149L523.939 179.192L528.009 172.008L532.737 173.152C533.994 171.831 535.414 170.67 536.959 169.7L536.768 164.797L544.69 162.205L547.005 166.364C548.81 166.247 550.607 166.371 552.349 166.731L555.69 162.952L562.791 166.545L561.333 171.286L561.2 171.308ZM551.689 178.653C550.184 177.892 548.457 177.602 546.726 177.821C544.994 178.04 543.337 178.757 541.962 179.882C540.588 181.007 539.559 182.49 539.004 184.142C538.45 185.795 538.396 187.543 538.848 189.165C539.301 190.788 540.24 192.213 541.547 193.259C542.854 194.305 544.47 194.926 546.191 195.043C547.911 195.16 549.66 194.768 551.214 193.917C552.769 193.066 554.061 191.793 554.925 190.26C555.5 189.242 555.872 188.133 556.02 186.999C556.168 185.864 556.09 184.726 555.789 183.648C555.489 182.57 554.972 181.574 554.268 180.717C553.565 179.86 552.688 179.159 551.689 178.653Z" fill="#EBEBEB"/>
<path fill-rule="evenodd" clip-rule="evenodd" d="M109.739 168.397C112.029 170.502 114.007 172.914 115.621 175.571L124.555 174.677L128.416 188.509L120.465 193.136C120.48 196.313 120.062 199.503 119.221 202.621L125.794 208.188L118.43 221.265L109.938 219.107C107.668 221.503 105.098 223.605 102.298 225.355L102.665 234.132L88.3771 238.849L84.1971 231.317C80.9706 231.522 77.7566 231.305 74.6393 230.672L68.58 237.495L55.7502 230.986L58.3765 222.413C56.0864 220.309 54.1084 217.897 52.4943 215.24L43.5714 216.135L39.7102 202.302L47.612 197.715C47.5988 194.538 48.0136 191.348 48.8458 188.228L42.2783 182.695L49.6523 169.629L58.1859 171.715C60.4641 169.324 63.0333 167.219 65.8276 165.456L65.4652 156.648L79.7443 151.994L83.935 159.527C87.1615 159.322 90.3754 159.539 93.4928 160.172L99.5429 153.338L112.374 159.836L109.739 168.397ZM92.5544 181.688C89.8336 180.31 86.7099 179.785 83.5784 180.179C80.4469 180.574 77.4484 181.87 74.9621 183.905C72.4758 185.94 70.6134 188.621 69.6105 191.61C68.6077 194.598 68.5093 197.76 69.3279 200.695C70.1466 203.631 71.8454 206.207 74.2096 208.099C76.5738 209.991 79.497 211.114 82.6096 211.324C85.7223 211.535 88.8844 210.825 91.6961 209.284C94.5077 207.743 96.8426 205.44 98.4054 202.666C100.497 198.948 101.056 194.651 99.9587 190.718C98.8617 186.785 96.1988 183.538 92.5544 181.688Z" fill="#EBEBEB"/>
<path fill-rule="evenodd" clip-rule="evenodd" d="M83.5796 97.8609C84.845 99.0237 85.9376 100.357 86.8288 101.826L91.7658 101.335L93.9185 109.008L89.555 111.549C89.5461 113.326 89.2939 115.109 88.8053 116.85L92.4381 119.933L88.3677 127.117L83.6524 125.963C82.391 127.288 80.967 128.452 79.4177 129.425L79.6274 134.276L71.7056 136.868L69.3905 132.709C67.6081 132.799 65.8354 132.66 64.1174 132.294L60.7662 136.072L53.7186 132.483L55.177 127.742C53.9088 126.582 52.8158 125.248 51.9278 123.777L46.9801 124.267L44.8274 116.594L49.2016 114.054C49.1894 112.295 49.4211 110.528 49.8904 108.802L46.2454 105.728L50.3233 98.4917L55.0493 99.6461C56.3069 98.3217 57.7273 97.1574 59.2733 96.1838L59.0743 91.3335L66.9961 88.741L69.3097 92.9109C71.1144 92.7907 72.9127 92.9106 74.6558 93.2673L78.0071 89.4897L85.0547 93.0781L83.6069 97.8202L83.5796 97.8609ZM74.0682 105.206C72.5631 104.442 70.8349 104.151 69.102 104.367C67.3692 104.584 65.7094 105.3 64.3323 106.425C62.9553 107.549 61.9229 109.031 61.3654 110.685C60.808 112.338 60.7506 114.087 61.2005 115.712C61.6504 117.338 62.5874 118.765 63.8931 119.815C65.1988 120.865 66.8146 121.49 68.5364 121.611C70.2581 121.732 72.0086 121.344 73.5667 120.495C75.1247 119.647 76.4203 118.376 77.2899 116.844C77.8683 115.824 78.2439 114.715 78.395 113.578C78.5461 112.441 78.4699 111.299 78.1706 110.218C77.8714 109.137 77.355 108.138 76.651 107.278C75.9471 106.418 75.0694 105.714 74.0682 105.206Z" fill="#F0F0F0"/>
<path fill-rule="evenodd" clip-rule="evenodd" d="M189.95 46.6949C193.873 48.53 197.495 50.8918 200.722 53.7172L212.386 49.0824L223.097 65.5333L214.265 74.5611C215.552 78.6803 216.268 82.9829 216.395 87.3565L227.455 92.0325L222.762 111.859L210.436 112.476C208.334 116.467 205.716 120.194 202.651 123.558L206.651 134.807L189.288 146.39L180.666 138.208C176.414 139.735 172.008 140.708 167.565 141.1L162.145 152.326L142.299 148.877L142.47 136.756C138.548 134.921 134.925 132.559 131.699 129.734L120.036 134.358L109.324 117.907L118.156 108.879C116.87 104.76 116.154 100.457 116.027 96.0837L104.967 91.4078L109.596 71.5761L121.922 70.9596C124.018 66.9663 126.63 63.235 129.686 59.8647L125.685 48.6264L143.049 37.0435L151.67 45.2258C155.932 43.6952 160.349 42.7268 164.802 42.3467L170.221 31.1208L190.063 34.6012L189.943 46.7479L189.95 46.6949ZM172.127 70.6122C167.915 69.8815 163.502 70.4148 159.447 72.1448C155.391 73.8747 151.874 76.7236 149.342 80.331C146.809 83.9385 145.374 88.1424 145.219 92.4113C145.063 96.6802 146.193 100.822 148.467 104.313C150.74 107.805 154.055 110.488 157.991 112.025C161.928 113.562 166.309 113.883 170.582 112.947C174.854 112.011 178.826 109.861 181.994 106.768C185.162 103.675 187.384 99.7787 188.38 95.5713C189.043 92.7782 189.148 89.9168 188.689 87.1506C188.231 84.3843 187.218 81.7675 185.709 79.4496C184.199 77.1317 182.223 75.1581 179.892 73.6418C177.562 72.1254 174.923 71.096 172.127 70.6122Z" fill="#E0E0E0"/>
<path d="M58.8001 370.518C73.3466 362.905 79.0769 346.58 81.0643 331.536C81.4182 329.034 82.1102 326.43 81.2616 324.112C80.413 321.794 77.8475 320.016 75.3902 320.83C73.3626 321.507 72.1844 323.579 70.8254 325.252C69.0121 327.491 66.6241 329.217 63.9368 330.23C62.182 330.886 60.1001 331.183 58.6478 330.157C56.6884 328.749 56.8885 325.731 57.3126 323.267C58.1178 318.642 58.9154 314.02 59.7053 309.401C60.276 306.93 60.4359 304.408 60.1785 301.935C60.03 300.709 59.5836 299.553 58.8766 298.565C58.1695 297.577 57.2223 296.785 56.1141 296.255C53.8144 295.345 50.6213 296.402 49.703 298.773C49.4382 299.791 49.242 300.822 49.1158 301.857C49.0445 302.376 48.8196 302.872 48.4696 303.281C48.1196 303.691 47.6603 303.996 47.1499 304.157C46.6185 304.164 46.1023 304.037 45.6503 303.787C45.1983 303.538 44.8254 303.175 44.5669 302.732C42.5184 299.842 40.9847 296.61 40.0268 293.167C39.0703 289.728 37.695 286.438 35.9297 283.368C34.0199 280.387 31.1035 277.885 27.5103 277.345C23.917 276.805 19.7057 278.575 18.2212 281.974C16.7366 285.373 18.2108 289.145 20.0125 292.202C22.6745 296.759 26.0155 300.871 29.9316 304.41C30.7132 304.964 31.281 305.759 31.5531 306.682C31.8179 308.396 29.9476 309.868 28.1998 310.245C26.2081 310.667 24.1932 310.262 22.193 310.287C20.1927 310.311 17.9012 310.946 16.8549 312.697C15.4306 315.136 17.1176 318.013 18.9457 319.968C22.6342 323.904 27.0152 327.149 31.9002 329.564C33.7262 330.28 35.3849 331.326 36.7954 332.65C38.0825 334.081 38.6171 336.406 37.4227 338.06C36.2283 339.713 33.808 340.037 31.9116 339.48C30.1068 338.775 28.3762 337.914 26.7386 336.908C23.4735 335.268 18.951 335.041 16.2345 337.764C15.3823 338.7 14.7529 339.808 14.3972 340.997C14.0415 342.187 13.9693 343.426 14.1865 344.614C14.658 346.98 15.6142 349.198 16.9981 351.138C21.4397 358.216 27.7753 363.892 35.3615 367.591C42.961 371.169 50.3132 372.68 58.7958 370.625" fill="#0F9D9D"/>
<path d="M22.4205 278.992L22.6315 279.255L23.2735 279.981C23.8407 280.626 24.6677 281.57 25.7105 282.821C28.6538 286.345 31.3122 290.098 33.6636 294.049C35.1575 296.535 36.6812 299.346 38.2588 302.386C39.8363 305.426 41.477 308.706 43.0862 312.21C44.7896 315.86 46.2802 319.613 47.551 323.452C48.2189 325.445 48.756 327.524 49.2992 329.636C49.8424 331.748 50.4024 333.893 50.958 336.07C53.1163 344.205 54.7959 352.483 55.9887 360.864C56.9333 367.715 57.2097 374.678 56.8141 381.661C56.5354 386.367 55.8349 391.065 54.7206 395.7C54.3174 397.329 53.9759 398.6 53.7142 399.458C53.5917 399.867 53.5025 400.192 53.4253 400.432C53.4021 400.545 53.3861 400.658 53.3773 400.772C53.4285 400.667 53.4725 400.559 53.5092 400.45C53.5437 400.206 53.6969 399.886 53.8301 399.478C54.1223 398.633 54.4929 397.386 54.9311 395.738C56.1161 391.1 56.8689 386.39 57.18 381.668C57.6287 374.662 57.3849 367.67 56.452 360.793C55.2795 352.387 53.6105 344.084 51.4531 335.926C50.8849 333.738 50.3314 331.597 49.7928 329.503C49.239 327.391 48.6927 325.3 48.0278 323.286C46.7409 319.435 45.234 315.669 43.5141 312.008C41.8515 308.5 40.2186 305.241 38.641 302.201C37.0634 299.161 35.5063 296.359 33.9803 293.87C31.5851 289.923 28.8651 286.189 25.8459 282.703C24.7788 281.472 23.9182 280.536 23.3252 279.921L22.6588 279.215C22.5075 279.063 22.4326 278.982 22.4205 278.992Z" fill="#263238"/>
<path d="M47.8707 323.253C48.046 322.92 48.1857 322.571 48.2875 322.213C48.5344 321.536 48.8659 320.565 49.2442 319.341C50.0098 316.903 50.9638 313.516 51.9886 309.78C53.0134 306.045 54.0086 302.671 54.8155 300.248C55.2121 299.046 55.5451 298.065 55.7814 297.387C55.9267 297.048 56.0343 296.697 56.1021 296.34C55.8928 296.665 55.724 297.011 55.5999 297.372C55.3133 298.025 54.9283 298.992 54.4891 300.19C53.609 302.597 52.5925 305.969 51.5341 309.712C50.4758 313.456 49.6115 316.743 48.9255 319.305C48.6019 320.448 48.3267 321.402 48.1167 322.2C47.9942 322.543 47.9116 322.896 47.8707 323.253Z" fill="#263238"/>
<path d="M16.3639 313.955C16.7737 314.089 17.1976 314.183 17.63 314.237C18.4491 314.398 19.648 314.621 21.1017 314.95C24.0259 315.566 28.0288 316.567 32.38 317.853C36.7313 319.138 40.639 320.507 43.3736 321.548C44.7683 322.065 45.8809 322.517 46.6469 322.824C47.0363 323.009 47.4464 323.152 47.8707 323.252C47.5083 323.028 47.1288 322.83 46.735 322.659C45.9871 322.3 44.8912 321.807 43.5132 321.248C40.7707 320.11 36.8995 318.712 32.5391 317.415C28.818 316.294 25.0305 315.362 21.1909 314.624C19.7098 314.336 18.5035 314.166 17.6754 314.069C17.2459 313.987 16.8065 313.949 16.3639 313.955Z" fill="#263238"/>
<path d="M56.1211 360.156C56.2323 360.047 56.3294 359.925 56.4099 359.793L57.1589 358.694C57.8016 357.737 58.7008 356.339 59.7868 354.613C61.9648 351.118 64.8179 346.208 67.8877 340.757C70.9575 335.307 73.7815 330.373 75.8771 326.85L78.3782 322.673L79.057 321.537C79.2027 321.27 79.2771 321.125 79.2557 321.124C79.151 321.236 79.0578 321.358 78.9776 321.488L78.2286 322.586C77.5753 323.543 76.6867 324.941 75.6007 326.668C73.4227 330.162 70.5697 335.073 67.4892 340.522C64.4087 345.972 61.606 350.908 59.4998 354.429C58.4793 356.15 57.6319 357.563 56.9987 358.606L56.3305 359.744C56.2435 359.873 56.1731 360.011 56.1211 360.156Z" fill="#263238"/>
<path d="M15.2171 342.058C15.2171 342.058 15.3439 342.154 15.6064 342.281L16.7938 342.814L21.1802 344.768C24.8767 346.409 29.9546 348.738 35.5576 351.323C41.1606 353.908 46.2673 356.186 50.0063 357.756C51.8804 358.547 53.3912 359.159 54.4564 359.564L55.6756 360.025C55.9625 360.133 56.1181 360.177 56.1211 360.156C55.996 360.071 55.8614 359.999 55.7196 359.942L54.5337 359.399L50.1565 357.457C46.46 355.815 41.3822 353.486 35.7792 350.901C30.1762 348.316 25.0603 346.027 21.3319 344.458C19.4563 343.678 17.9364 343.054 16.8819 342.65L15.652 342.189C15.5127 342.131 15.367 342.087 15.2171 342.058Z" fill="#263238"/>
<path d="M507.793 292.74L443.438 287.375C441.595 287.226 439.823 286.717 438.222 285.876C436.622 285.036 435.225 283.882 434.111 282.479C432.998 281.077 432.19 279.454 431.734 277.704C431.278 275.954 431.183 274.112 431.455 272.282L454.754 112.43C455.022 110.603 455.65 108.824 456.602 107.196C457.554 105.568 458.81 104.121 460.301 102.939C461.791 101.757 463.485 100.863 465.287 100.308C467.089 99.7528 468.962 99.5473 470.801 99.7032L535.158 105.058C538.87 105.364 542.218 107.121 544.468 109.943C546.717 112.764 547.685 116.421 547.157 120.109L523.857 279.972C523.592 281.803 522.966 283.587 522.015 285.22C521.064 286.854 519.806 288.305 518.314 289.491C516.822 290.677 515.124 291.575 513.319 292.132C511.514 292.69 509.636 292.896 507.793 292.74Z" fill="#455A64"/>
<path d="M534.285 110.617L521.796 109.634C521.39 109.607 520.977 109.661 520.581 109.791C520.186 109.922 519.816 110.127 519.492 110.394C519.168 110.661 518.898 110.986 518.695 111.349C518.493 111.713 518.363 112.108 518.313 112.511L517.996 114.759C517.889 115.573 517.464 116.333 516.812 116.874C516.16 117.414 515.333 117.692 514.511 117.647L490.18 115.614C489.772 115.572 489.382 115.451 489.032 115.256C488.682 115.061 488.379 114.796 488.141 114.478C487.902 114.16 487.734 113.795 487.644 113.403C487.555 113.011 487.546 112.601 487.619 112.197L487.94 109.928C488.012 109.524 488.002 109.114 487.912 108.723C487.822 108.332 487.653 107.967 487.415 107.649C487.177 107.331 486.875 107.067 486.525 106.872C486.176 106.676 485.787 106.554 485.38 106.511L480.982 106.164L470.052 105.304C468.764 105.196 467.453 105.34 466.192 105.73C464.93 106.119 463.744 106.745 462.701 107.573C461.658 108.401 460.778 109.414 460.112 110.554C459.446 111.694 459.006 112.939 458.818 114.218L436.07 270.254C435.699 272.839 436.375 275.401 437.951 277.379C439.528 279.356 441.874 280.586 444.476 280.8L508.703 286.155C511.304 286.371 513.947 285.554 516.055 283.883C518.162 282.213 519.562 279.824 519.947 277.242L542.685 121.204C542.877 119.921 542.811 118.629 542.492 117.401C542.173 116.173 541.607 115.035 540.826 114.051C540.045 113.067 539.066 112.257 537.943 111.668C536.821 111.078 535.578 110.721 534.285 110.617Z" fill="white"/>
<path d="M518.207 216.742L454.61 211.737L454.012 215.967L517.609 220.972L518.207 216.742Z" fill="#455A64"/>
<path d="M513.592 233.198C513.571 233.346 499.975 232.405 483.238 231.088C466.501 229.771 452.931 228.574 452.951 228.426C452.972 228.277 466.568 229.218 483.316 230.537C500.064 231.855 513.613 233.05 513.592 233.198Z" fill="#455A64"/>
<path d="M527.763 133.001C527.74 133.16 514.146 132.208 497.409 130.891C480.672 129.573 467.1 128.387 467.122 128.228C467.145 128.069 480.739 129.021 497.487 130.339C514.235 131.657 527.788 132.821 527.763 133.001Z" fill="#455A64"/>
<path d="M512.503 240.895C512.482 241.043 498.887 240.102 482.15 238.785C465.412 237.467 451.842 236.271 451.863 236.122C451.884 235.974 465.48 236.915 482.227 238.233C498.975 239.551 512.526 240.736 512.503 240.895Z" fill="#455A64"/>
<path d="M511.419 248.56C511.398 248.708 497.803 247.767 481.065 246.45C464.328 245.132 450.758 243.936 450.779 243.787C450.8 243.639 464.396 244.58 481.143 245.898C497.891 247.216 511.437 248.433 511.419 248.56Z" fill="#455A64"/>
<path d="M510.328 256.278C510.307 256.426 496.711 255.485 479.974 254.168C463.237 252.85 449.666 251.654 449.687 251.505C449.708 251.357 463.304 252.298 480.052 253.616C496.8 254.934 510.35 256.119 510.328 256.278Z" fill="#455A64"/>
<path d="M509.241 263.964C509.218 264.123 495.624 263.171 478.887 261.854C462.15 260.537 448.578 259.351 448.6 259.192C448.623 259.033 462.217 259.985 478.965 261.303C495.713 262.621 509.262 263.816 509.241 263.964Z" fill="#455A64"/>
<path d="M508.871 272.758C508.85 272.906 495.255 271.965 478.517 270.647C461.78 269.33 448.21 268.134 448.231 267.985C448.252 267.837 461.847 268.778 478.595 270.096C495.343 271.414 508.894 272.599 508.871 272.758Z" fill="#455A64"/>
<path d="M529.643 141.993L465.885 136.975L457.22 198.242L520.978 203.26L529.643 141.993Z" fill="#E0E0E0"/>
<path d="M462.905 193.383L485.009 163.242L496.579 184.531L506.857 174.513L516.778 197.623L462.905 193.383Z" fill="#0F9D9D"/>
<path d="M506.444 158.734C506.317 159.635 505.923 160.495 505.313 161.205C504.702 161.915 503.903 162.443 503.015 162.722C502.128 163.001 501.192 163.019 500.327 162.773C499.461 162.527 498.705 162.029 498.153 161.34C497.601 160.652 497.279 159.806 497.227 158.907C497.175 158.009 497.395 157.1 497.861 156.294C498.326 155.488 499.015 154.823 499.84 154.381C500.666 153.94 501.591 153.742 502.499 153.814C503.715 153.912 504.813 154.485 505.552 155.407C506.292 156.329 506.612 157.525 506.444 158.734Z" fill="#0F9D9D"/>
<path d="M516.754 197.793C516.754 197.793 516.766 197.708 516.79 197.538C516.814 197.369 516.848 197.125 516.89 196.828C516.983 196.171 517.112 195.259 517.28 194.071C517.623 191.644 518.121 188.124 518.678 183.655C519.943 174.707 521.671 161.958 523.781 146.655L524.001 146.93L470.139 142.691C470.055 142.748 470.786 142.163 470.48 142.417L468.531 156.2C467.893 160.705 467.27 165.116 466.664 169.399C465.449 177.986 464.302 186.097 463.247 193.56L463.017 193.274L501.948 196.477L512.934 197.406L515.848 197.636L516.595 197.694L516.862 197.715L516.627 197.697L515.901 197.64L513.04 197.415L502.101 196.618L462.96 193.677L462.693 193.656L462.731 193.391C463.781 185.97 464.934 177.817 466.148 169.23C466.748 164.989 467.378 160.536 468.015 156.03L469.964 142.248C469.649 142.491 470.381 141.895 470.317 141.965L524.179 146.204L524.286 146.212L524.223 146.658C521.985 162.025 520.132 174.818 518.829 183.806C518.202 188.237 517.707 191.736 517.301 194.148C517.137 195.314 517.009 196.216 516.919 196.852C516.879 197.138 516.847 197.361 516.822 197.541C516.811 197.627 516.788 197.712 516.754 197.793Z" fill="#455A64"/>
<path d="M207.439 24.1555L187.464 165.392C186.507 172.155 191.252 178.071 198.061 178.607L412.869 195.513C419.678 196.049 425.973 191.001 426.93 184.238L446.905 43.0019C447.861 36.2392 443.117 30.3225 436.308 29.7866L221.499 12.8808C214.69 12.3449 208.395 17.3928 207.439 24.1555Z" fill="#455A64"/>
<path d="M224.806 18.4258L202.845 173.699L402.827 189.438L424.788 34.1648L224.806 18.4258Z" fill="white"/>
<path d="M425.776 106.311C427.043 106.411 428.229 106.882 429.183 107.663C430.137 108.445 430.818 109.503 431.138 110.704C431.458 111.904 431.404 113.193 430.983 114.408C430.561 115.622 429.791 116.708 428.769 117.527C427.748 118.346 426.521 118.862 425.244 119.01C423.967 119.157 422.697 118.93 421.595 118.356C420.492 117.783 419.607 116.889 419.052 115.787C418.496 114.686 418.294 113.427 418.472 112.168C418.711 110.481 419.614 108.917 420.984 107.818C422.354 106.72 424.078 106.178 425.776 106.311Z" fill="#263238"/>
<path d="M207.693 71.6531L201 118.979C200.899 119.694 201.4 120.319 202.119 120.375L202.162 120.379C202.881 120.435 203.546 119.902 203.647 119.188L210.341 71.8615C210.442 71.1471 209.941 70.5222 209.221 70.4656L209.179 70.4622C208.459 70.4056 207.795 70.9388 207.693 71.6531Z" fill="#263238"/>
<path d="M377.976 42.2721L314.378 37.2668L313.78 41.4969L377.377 46.5021L377.976 42.2721Z" fill="#455A64"/>
<path d="M284.857 108.406L221.26 103.401L220.662 107.631L284.259 112.636L284.857 108.406Z" fill="#455A64"/>
<path d="M391.239 59.2242C391.216 59.3832 373.502 58.107 351.705 56.3916C329.908 54.6761 312.174 53.1624 312.196 53.0034C312.218 52.8444 329.933 54.1206 351.783 55.8403C373.633 57.5599 391.26 59.0758 391.239 59.2242Z" fill="#455A64"/>
<path d="M389.933 68.4581C389.912 68.6065 372.196 67.3409 350.399 65.6255C328.602 63.91 310.869 62.3857 310.89 62.2373C310.911 62.0889 328.627 63.3545 350.477 65.0742C372.327 66.7938 389.955 68.2991 389.933 68.4581Z" fill="#455A64"/>
<path d="M388.628 77.6818C388.607 77.8302 370.891 76.5645 349.095 74.8491C327.298 73.1337 309.565 71.6094 309.586 71.461C309.607 71.3125 327.322 72.5782 349.173 74.2978C371.023 76.0174 388.649 77.5333 388.628 77.6818Z" fill="#455A64"/>
<path d="M387.324 86.9054C387.301 87.0644 369.587 85.7882 347.79 84.0727C325.993 82.3573 308.259 80.8436 308.281 80.6846C308.304 80.5255 326.018 81.8018 347.868 83.5214C369.718 85.2411 387.345 86.757 387.324 86.9054Z" fill="#455A64"/>
<path d="M386.021 96.1183C386 96.2667 368.284 95.0011 346.487 93.2856C324.69 91.5702 306.957 90.0459 306.978 89.8975C306.999 89.749 324.715 91.0147 346.565 92.7343C368.415 94.454 386.04 95.9805 386.021 96.1183Z" fill="#455A64"/>
<path d="M367.368 103.998C367.347 104.146 353.506 103.185 336.459 101.844C319.412 100.502 305.607 99.2871 305.628 99.1387C305.649 98.9903 319.479 99.9501 336.537 101.293C353.594 102.635 367.389 103.849 367.368 103.998Z" fill="#455A64"/>
<path d="M323.355 128.255C323.334 128.404 300.089 126.703 271.439 124.448C242.79 122.193 219.58 120.238 219.601 120.09C219.622 119.941 242.868 121.642 271.517 123.897C300.167 126.152 323.378 128.096 323.355 128.255Z" fill="#455A64"/>
<path d="M322.268 135.941C322.245 136.101 299.002 134.389 270.352 132.134C241.702 129.88 218.492 127.935 218.514 127.776C218.537 127.617 241.78 129.328 270.43 131.583C299.08 133.838 322.289 135.793 322.268 135.941Z" fill="#455A64"/>
<path d="M321.179 143.638C321.158 143.787 297.913 142.086 269.264 139.831C240.614 137.576 217.405 135.621 217.426 135.473C217.447 135.324 240.692 137.025 269.342 139.28C297.991 141.535 321.202 143.479 321.179 143.638Z" fill="#455A64"/>
<path d="M320.092 151.325C320.07 151.484 296.826 149.772 268.177 147.517C239.527 145.263 216.316 143.318 216.339 143.159C216.361 143 239.605 144.711 268.254 146.966C296.904 149.221 320.113 151.176 320.092 151.325Z" fill="#455A64"/>
<path d="M319.004 159.022C318.983 159.17 295.738 157.469 267.088 155.214C238.438 152.96 215.229 151.004 215.25 150.856C215.271 150.708 238.516 152.408 267.166 154.663C295.816 156.918 319.025 158.873 319.004 159.022Z" fill="#455A64"/>
<path d="M296.294 33.6462L232.537 28.6284L223.872 89.8959L287.629 94.9137L296.294 33.6462Z" fill="#0F9D9D"/>
<path d="M229.555 85.0474L251.658 54.9065L263.23 76.1847L273.507 66.1773L283.428 89.2873L229.555 85.0474Z" fill="#E0E0E0"/>
<path d="M273.096 50.3871C272.97 51.2893 272.578 52.1507 271.969 52.8622C271.36 53.5737 270.561 54.1033 269.673 54.3839C268.786 54.6646 267.849 54.6838 266.983 54.4389C266.117 54.1941 265.359 53.6963 264.806 53.0086C264.253 52.3209 263.93 51.4741 263.877 50.5755C263.824 49.6769 264.044 48.7668 264.509 47.9605C264.974 47.1542 265.663 46.4879 266.489 46.0459C267.315 45.604 268.241 45.4062 269.149 45.4777C270.365 45.5733 271.463 46.1439 272.203 47.0643C272.943 47.9847 273.264 49.1796 273.096 50.3871Z" fill="#E0E0E0"/>
<path d="M283.404 89.457C283.404 89.457 283.417 89.3616 283.44 89.2026C283.462 89.0435 283.498 88.7891 283.54 88.4922C283.633 87.8349 283.763 86.9126 283.93 85.7358C284.275 83.2974 284.771 79.7882 285.338 75.3198C286.604 66.372 288.331 53.6228 290.442 38.3203L290.662 38.5949L236.8 34.3558C236.716 34.4135 237.445 33.8384 237.139 34.0931L236.16 41.016C235.836 43.306 235.514 45.5854 235.196 47.833L233.329 61.0321C232.114 69.6195 230.967 77.7299 229.912 85.1935L229.682 84.9074L268.615 88.1001L279.588 89.0388L282.502 89.2681L283.26 89.3278L283.527 89.3488L283.292 89.3303L282.566 89.2732L279.705 89.048L268.764 88.262L229.625 85.3103L229.359 85.2893L229.396 85.0243C230.446 77.6031 231.599 69.4503 232.813 60.8629C233.42 56.5727 234.042 52.173 234.68 47.6637L236.629 33.8815C236.314 34.1247 237.046 33.5284 236.984 33.5878L290.846 37.8268L291.113 37.8478L291.075 38.1129C288.849 53.4706 286.995 66.2741 285.692 75.2619C285.065 79.6934 284.517 83.1878 284.164 85.6042C284.001 86.7597 283.864 87.7245 283.782 88.3076C283.741 88.5938 283.71 88.8165 283.684 88.9967C283.651 89.1763 283.551 89.3408 283.404 89.457Z" fill="#455A64"/>
<path d="M383.993 124.42L338.873 120.869L332.741 164.23L377.861 167.781L383.993 124.42Z" fill="#0F9D9D"/>
<path d="M336.767 160.795L352.399 139.471L360.598 154.534L367.872 147.442L374.884 163.795L336.767 160.795Z" fill="#E0E0E0"/>
<path d="M367.574 136.27C367.485 136.899 367.21 137.499 366.784 137.994C366.359 138.489 365.801 138.858 365.182 139.052C364.562 139.247 363.91 139.259 363.306 139.088C362.702 138.916 362.174 138.568 361.789 138.088C361.404 137.608 361.18 137.017 361.143 136.391C361.107 135.764 361.261 135.13 361.585 134.568C361.91 134.005 362.391 133.541 362.967 133.233C363.543 132.925 364.188 132.787 364.822 132.837C365.671 132.904 366.438 133.303 366.954 133.947C367.47 134.59 367.693 135.426 367.574 136.27Z" fill="#E0E0E0"/>
<path d="M374.868 163.911C374.868 163.911 374.877 163.847 374.892 163.741C374.907 163.635 374.934 163.445 374.964 163.233C375.03 162.766 375.114 162.172 375.24 161.282C375.483 159.564 375.839 157.041 376.289 153.861C377.189 147.5 378.407 138.505 379.895 127.677L380.051 127.872L341.934 124.872C341.88 124.868 342.396 124.501 342.175 124.687L340.799 134.42C340.349 137.6 339.909 140.714 339.478 143.76C338.619 149.835 337.808 155.57 337.061 160.85L336.905 160.655L364.331 163.017L372.102 163.629L374.172 163.792L374.888 163.848C374.888 163.848 374.834 163.844 374.727 163.836L374.215 163.795L372.187 163.636L364.441 163.08L336.749 160.997L336.557 160.982L336.584 160.791C337.333 155.49 338.142 149.776 339.001 143.701L341.676 124.787C341.458 124.952 341.981 124.533 341.931 124.582L380.049 127.582L380.241 127.597L380.216 127.778C378.677 138.655 377.322 147.703 376.401 154.062C375.951 157.243 375.606 159.681 375.312 161.384C375.195 162.211 375.105 162.847 375.04 163.303C375.012 163.504 374.989 163.663 374.971 163.791C374.953 163.918 374.877 163.923 374.868 163.911Z" fill="#455A64"/>
<path d="M404.48 211.79L100.851 187.894C92.2615 187.218 84.3204 193.585 83.1138 202.116L56.3898 391.071C55.1832 399.602 61.1681 407.066 69.7575 407.742L373.386 431.638C381.976 432.314 389.917 425.946 391.123 417.415L417.847 228.461C419.054 219.93 413.069 212.466 404.48 211.79Z" fill="#263238"/>
<path d="M42.5098 389.164L405.167 417.706L405.115 418.077C404.407 423.082 401.726 427.724 397.663 430.983C393.599 434.241 388.485 435.849 383.446 435.453L58.7885 409.902C53.7493 409.505 49.1978 407.136 46.1351 403.317C43.0724 399.498 41.7495 394.54 42.4573 389.535L42.5098 389.164Z" fill="#263238"/>
<path d="M408.88 220.969L93.0507 196.113L66.793 381.771L382.623 406.627L408.88 220.969Z" fill="#E0E0E0"/>
<path d="M190.871 400.84L194.37 408.309L257.689 413.292L262.88 406.508L190.871 400.84Z" fill="#455A64"/>
<path d="M392.613 232.199L101.836 209.314L77.3374 382.536L368.114 405.421L392.613 232.199Z" fill="#FAFAFA"/>
<path d="M113.043 218.826C112.978 219.306 112.769 219.766 112.446 220.145C112.122 220.525 111.696 220.808 111.224 220.958C110.751 221.108 110.252 221.119 109.79 220.989C109.328 220.859 108.925 220.595 108.63 220.229C108.335 219.862 108.162 219.412 108.133 218.933C108.105 218.454 108.222 217.969 108.469 217.539C108.717 217.11 109.084 216.755 109.524 216.519C109.964 216.283 110.457 216.178 110.941 216.216C111.587 216.267 112.172 216.57 112.566 217.059C112.96 217.548 113.131 218.183 113.043 218.826Z" fill="#455A64"/>
<path d="M122.992 219.609C122.926 220.09 122.717 220.55 122.393 220.929C122.069 221.309 121.643 221.592 121.169 221.742C120.696 221.892 120.197 221.902 119.735 221.771C119.273 221.64 118.869 221.375 118.575 221.007C118.28 220.64 118.109 220.188 118.081 219.709C118.054 219.23 118.173 218.745 118.422 218.315C118.671 217.886 119.039 217.532 119.481 217.297C119.922 217.063 120.416 216.96 120.9 217C121.545 217.051 122.128 217.354 122.521 217.843C122.913 218.333 123.082 218.968 122.992 219.609Z" fill="#455A64"/>
<path d="M132.951 220.392C132.885 220.873 132.677 221.332 132.353 221.712C132.029 222.092 131.604 222.374 131.131 222.525C130.658 222.675 130.16 222.686 129.698 222.556C129.236 222.426 128.832 222.161 128.537 221.795C128.242 221.429 128.069 220.978 128.041 220.499C128.012 220.021 128.129 219.536 128.377 219.106C128.624 218.676 128.991 218.321 129.431 218.086C129.871 217.85 130.364 217.745 130.848 217.783C131.169 217.807 131.478 217.893 131.757 218.037C132.037 218.181 132.281 218.38 132.477 218.623C132.672 218.865 132.814 219.147 132.896 219.45C132.977 219.754 132.996 220.074 132.951 220.392Z" fill="#455A64"/>
<path d="M389.907 251.335C389.884 251.494 324.755 246.486 244.485 240.169C164.214 233.851 99.1074 228.609 99.1299 228.45C99.1524 228.291 164.282 233.299 244.563 239.617C324.844 245.936 389.928 251.186 389.907 251.335Z" fill="#455A64"/>
<path d="M391.216 416.758L56.4828 390.414L56.3328 391.474L391.066 417.818L391.216 416.758Z" fill="#455A64"/>
<path d="M174.659 319.499L111.062 314.494L110.463 318.724L174.061 323.729L174.659 319.499Z" fill="#455A64"/>
<path d="M265.106 267.294L201.508 262.289L200.91 266.519L264.507 271.524L265.106 267.294Z" fill="#455A64"/>
<path d="M357.474 290.482C357.453 290.631 322.018 287.971 278.339 284.533C234.66 281.095 199.261 278.181 199.282 278.032C199.303 277.884 234.729 280.533 278.418 283.971C322.108 287.41 357.497 290.323 357.474 290.482Z" fill="#455A64"/>
<path d="M356.17 299.706C356.149 299.854 320.713 297.194 277.034 293.756C233.355 290.319 197.956 287.404 197.977 287.256C197.998 287.107 233.423 289.767 277.112 293.205C320.802 296.643 356.186 299.589 356.17 299.706Z" fill="#455A64"/>
<path d="M354.865 308.929C354.843 309.088 319.409 306.418 275.73 302.98C232.051 299.542 196.65 296.638 196.673 296.479C196.695 296.32 232.118 298.99 275.808 302.429C319.498 305.867 354.886 308.781 354.865 308.929Z" fill="#455A64"/>
<path d="M353.559 318.163C353.538 318.312 318.103 315.652 274.424 312.214C230.745 308.776 195.346 305.862 195.367 305.713C195.388 305.565 230.814 308.214 274.503 311.652C318.193 315.09 353.582 318.004 353.559 318.163Z" fill="#455A64"/>
<path d="M352.255 327.387C352.234 327.535 316.798 324.875 273.119 321.438C229.44 318 194.041 315.085 194.062 314.937C194.083 314.789 229.508 317.448 273.197 320.886C316.887 324.325 352.277 327.228 352.255 327.387Z" fill="#455A64"/>
<path d="M254.508 329.021C254.487 329.169 240.646 328.208 223.599 326.867C206.553 325.525 192.737 324.309 192.758 324.161C192.779 324.012 206.673 324.977 223.677 326.315C240.681 327.654 254.529 328.872 254.508 329.021Z" fill="#455A64"/>
<path d="M347.254 354.425C347.232 354.584 323.935 352.869 295.232 350.61C266.528 348.351 243.264 346.402 243.287 346.243C243.309 346.084 266.596 347.799 295.31 350.058C324.023 352.318 347.275 354.277 347.254 354.425Z" fill="#455A64"/>
<path d="M345.869 364.221C345.848 364.37 322.549 362.665 293.846 360.406C265.143 358.147 241.88 356.187 241.901 356.039C241.922 355.89 265.21 357.595 293.924 359.854C322.638 362.114 345.89 364.073 345.869 364.221Z" fill="#455A64"/>
<path d="M344.483 374.017C344.462 374.166 321.164 372.461 292.461 370.202C263.758 367.943 240.495 365.983 240.516 365.835C240.537 365.687 263.825 367.391 292.539 369.651C321.252 371.91 344.506 373.858 344.483 374.017Z" fill="#455A64"/>
<path d="M343.098 383.813C343.077 383.962 319.778 382.257 291.075 379.998C262.372 377.739 239.11 375.779 239.131 375.631C239.152 375.482 262.439 377.187 291.153 379.446C319.867 381.706 343.12 383.654 343.098 383.813Z" fill="#455A64"/>
<path d="M171.965 339.686C171.945 339.835 158.05 338.87 140.971 337.526C123.892 336.182 110.034 334.962 110.055 334.814C110.076 334.666 123.97 335.63 141.049 336.975C158.128 338.319 171.988 339.527 171.965 339.686Z" fill="#455A64"/>
<path d="M170.878 347.373C170.856 347.532 156.963 346.556 139.884 345.212C122.805 343.868 108.945 342.659 108.968 342.5C108.99 342.341 122.883 343.317 139.962 344.661C157.041 346.005 170.905 347.182 170.878 347.373Z" fill="#455A64"/>
<path d="M169.79 355.07C169.769 355.218 155.874 354.253 138.796 352.909C121.717 351.565 107.858 350.345 107.879 350.197C107.9 350.049 121.795 351.013 138.874 352.358C155.952 353.702 169.811 354.921 169.79 355.07Z" fill="#455A64"/>
<path d="M168.703 362.756C168.68 362.915 154.787 361.939 137.708 360.595C120.63 359.251 106.77 358.042 106.792 357.883C106.815 357.724 120.708 358.7 137.786 360.044C154.865 361.388 168.724 362.607 168.703 362.756Z" fill="#455A64"/>
<path d="M167.607 370.506C167.586 370.654 153.691 369.689 136.612 368.345C119.534 367.001 105.675 365.782 105.696 365.633C105.717 365.485 119.612 366.45 136.69 367.794C153.769 369.138 167.635 370.304 167.607 370.506Z" fill="#455A64"/>
<path d="M185.069 247.038L121.312 242.02L112.647 303.287L176.404 308.305L185.069 247.038Z" fill="#E0E0E0"/>
<path d="M118.331 298.429L140.435 268.288L152.005 289.576L162.292 279.57L172.204 302.668L118.331 298.429Z" fill="#0F9D9D"/>
<path d="M161.871 263.779C161.743 264.68 161.349 265.54 160.739 266.25C160.128 266.96 159.329 267.488 158.442 267.767C157.554 268.046 156.618 268.064 155.753 267.818C154.887 267.572 154.131 267.073 153.579 266.385C153.027 265.697 152.705 264.851 152.653 263.952C152.601 263.054 152.822 262.145 153.287 261.339C153.752 260.533 154.441 259.868 155.267 259.426C156.092 258.985 157.018 258.787 157.925 258.859C159.143 258.954 160.242 259.527 160.982 260.449C161.722 261.372 162.042 262.569 161.871 263.779Z" fill="#0F9D9D"/>
<path d="M172.18 302.838C172.187 302.756 172.198 302.675 172.214 302.594C172.241 302.403 172.274 302.17 172.316 301.873C172.408 301.227 172.538 300.304 172.706 299.117C173.05 296.689 173.546 293.18 174.102 288.711C175.368 279.763 177.095 267.014 179.207 251.7L179.426 251.986L125.564 247.747C125.48 247.804 126.21 247.219 125.905 247.473L123.955 261.256C123.32 265.751 122.696 270.161 122.089 274.455C120.876 283.032 119.728 291.142 118.673 298.605L118.442 298.33L157.374 301.523L168.358 302.462L171.272 302.692L172.286 302.771C172.286 302.771 172.212 302.765 172.052 302.753L171.326 302.696L168.465 302.471L157.524 301.685L118.385 298.733L118.129 298.713L118.166 298.448C119.216 291.026 120.369 282.874 121.582 274.297C122.189 270.003 122.813 265.593 123.449 261.098L125.398 247.315L125.751 247.032L179.613 251.271L179.88 251.292L179.844 251.547C177.67 266.919 175.753 279.707 174.45 288.695C173.822 293.137 173.328 296.625 172.922 299.037C172.758 300.204 172.63 301.105 172.539 301.751C172.498 302.038 172.467 302.26 172.443 302.43C172.419 302.6 172.189 302.849 172.18 302.838Z" fill="#455A64"/>
<path d="M235.964 340.939L190.844 337.388L184.711 380.749L229.831 384.3L235.964 340.939Z" fill="#E0E0E0"/>
<path d="M188.737 377.314L204.37 355.99L212.569 371.054L219.842 363.961L226.866 380.315L188.737 377.314Z" fill="#0F9D9D"/>
<path d="M219.545 352.789C219.456 353.418 219.181 354.019 218.755 354.514C218.329 355.009 217.771 355.377 217.152 355.572C216.533 355.767 215.88 355.779 215.276 355.608C214.673 355.436 214.145 355.088 213.76 354.608C213.375 354.128 213.15 353.537 213.114 352.911C213.077 352.284 213.231 351.649 213.556 351.087C213.88 350.525 214.361 350.061 214.937 349.753C215.513 349.445 216.159 349.307 216.792 349.357C217.641 349.424 218.409 349.823 218.925 350.467C219.441 351.11 219.664 351.946 219.545 352.789Z" fill="#0F9D9D"/>
<path d="M226.848 380.442C226.852 380.382 226.861 380.322 226.873 380.262C226.891 380.135 226.915 379.965 226.945 379.753C227.009 379.297 227.095 378.693 227.221 377.802C227.464 376.085 227.821 373.562 228.21 370.43C229.109 364.069 230.381 355.079 231.826 344.248L231.982 344.442L193.854 341.441C193.854 341.441 194.316 341.07 194.096 341.257L191.397 360.34C190.538 366.415 189.727 372.15 188.978 377.44L188.813 377.234L216.371 379.5L224.135 380.164L226.195 380.326L224.167 380.167L216.438 379.559L188.736 377.475L188.555 377.461L188.58 377.28C189.33 371.98 190.139 366.255 190.999 360.18C191.427 357.148 191.87 354.02 192.32 350.84L193.693 341.128C193.475 341.294 193.988 340.873 193.938 340.923L232.066 343.923L232.248 343.938L232.222 344.118C230.684 354.995 229.329 364.043 228.406 370.413C227.956 373.594 227.613 376.022 227.372 377.728C227.255 378.555 227.165 379.192 227.1 379.647C227.072 379.849 227.049 380.008 227.031 380.135C226.99 380.247 226.928 380.351 226.848 380.442Z" fill="#455A64"/>
<path d="M603.796 433.778L593.3 431.676L587.982 451.346L603.315 454.579L603.722 453.378C605.496 448.008 612.334 425.992 612.21 422.134C612.073 417.835 603.796 433.778 603.796 433.778Z" fill="#0F9D9D"/>
<path d="M611.482 420.64C611.675 420.655 609.88 428.082 607.483 437.166C605.087 446.25 603.002 453.59 602.813 453.553C602.623 453.517 604.417 446.176 606.812 437.028C609.207 427.879 611.293 420.604 611.482 420.64Z" fill="#263238"/>
<path d="M606.148 433.02C606.021 433.16 605.496 432.904 605.052 432.376C604.609 431.848 604.476 431.259 604.639 431.175C604.802 431.091 605.207 431.434 605.612 431.927C606.017 432.42 606.284 432.902 606.148 433.02Z" fill="#263238"/>
<path d="M607.17 431.899C607.061 432.062 606.455 431.843 605.902 431.328C605.349 430.813 605.091 430.192 605.245 430.097C605.399 430.002 605.881 430.329 606.396 430.809C606.911 431.289 607.29 431.737 607.17 431.899Z" fill="#263238"/>
<path d="M604.312 447.604C604.3 447.689 603.996 447.933 603.408 448.273C602.665 448.678 601.959 449.15 601.298 449.682C600.671 450.214 600.176 450.882 599.858 451.627C599.624 452.209 599.612 452.605 599.502 452.618C599.392 452.63 599.255 452.223 599.385 451.536C599.588 450.638 600.084 449.813 600.796 449.193C601.496 448.608 602.293 448.151 603.145 447.845C603.859 447.601 604.271 447.515 604.312 447.604Z" fill="#263238"/>
<path d="M604.194 432.566C604.376 432.505 604.662 432.924 604.707 433.517C604.753 434.11 604.557 434.577 604.365 434.562C604.173 434.547 604.062 434.11 604.018 433.581C603.974 433.052 604.002 432.626 604.194 432.566Z" fill="#263238"/>
<path d="M603.103 432.651C603.284 432.666 603.302 433.225 603.142 433.898C602.982 434.571 602.686 435.063 602.511 435.006C602.335 434.949 602.305 434.4 602.47 433.77C602.634 433.14 602.911 432.636 603.103 432.651Z" fill="#263238"/>
<path d="M594.43 453.451L536.105 442.836L413.03 435.905L449.345 412.35L531.779 414.893L601.986 430.323L594.43 453.451Z" fill="#263238"/>
<path d="M496.731 429.264C496.708 429.423 485.174 428.633 470.967 427.515C456.759 426.397 445.269 425.375 445.291 425.216C445.314 425.057 456.837 425.846 471.045 426.964C485.252 428.082 496.752 429.116 496.731 429.264Z" fill="#455A64"/>
<path d="M493.147 413.696L493.636 440.309L501.706 440.944L499.326 413.893L493.147 413.696Z" fill="black"/>
<path d="M520.614 442.786L520.918 432.09L500.561 432.632L499.913 448.275L501.162 448.373C506.773 448.536 529.69 448.817 533.479 447.593C537.758 446.183 520.614 442.786 520.614 442.786Z" fill="#0F9D9D"/>
<path d="M534.053 446.513C534.026 446.703 526.414 447.101 517.036 447.403C507.657 447.705 500.046 447.792 500.052 447.599C500.058 447.407 507.689 447.021 517.057 446.719C526.425 446.416 534.052 446.362 534.053 446.513Z" fill="#263238"/>
<path d="M520.889 444.962C520.718 444.874 520.886 444.297 521.334 443.721C521.782 443.146 522.332 442.846 522.454 442.974C522.577 443.101 522.291 443.593 521.882 444.118C521.473 444.644 521.07 445.051 520.889 444.962Z" fill="#263238"/>
<path d="M522.194 445.579C522.012 445.565 522.131 444.877 522.552 444.192C522.972 443.507 523.505 443.099 523.652 443.207C523.798 443.315 523.557 443.875 523.144 444.507C522.731 445.139 522.362 445.689 522.194 445.579Z" fill="#263238"/>
<path d="M506.173 447.363C506.1 447.421 505.793 447.151 505.362 446.688C504.836 446.09 504.252 445.545 503.617 445.061C502.984 444.608 502.238 444.325 501.445 444.236C500.837 444.188 500.436 444.274 500.378 444.152C500.32 444.029 500.718 443.803 501.441 443.732C502.377 443.675 503.284 443.936 504.013 444.47C504.708 444.982 505.29 445.624 505.731 446.363C506.103 446.939 506.256 447.305 506.173 447.363Z" fill="#263238"/>
<path d="M521.023 442.946C521.119 443.104 520.751 443.493 520.169 443.715C519.587 443.938 519.067 443.875 519.093 443.695C519.118 443.515 519.487 443.276 520 443.08C520.513 442.885 520.938 442.779 521.023 442.946Z" fill="#263238"/>
<path d="M520.737 441.916C520.71 442.107 520.199 442.281 519.515 442.313C518.83 442.345 518.287 442.217 518.304 442.025C518.32 441.833 518.873 441.663 519.525 441.628C520.178 441.594 520.719 441.733 520.737 441.916Z" fill="#263238"/>
<path d="M420.413 312.276L437.535 313.313C438.047 311.37 439.459 303.752 439.459 303.752C439.459 303.752 446.705 303.647 448.221 296.67C449.737 289.693 451.81 273.433 451.81 273.433C448.168 271.16 443.918 269.925 439.498 269.856C435.077 269.787 430.647 270.886 426.663 273.041L425.491 273.699L420.413 312.276Z" fill="#B78876"/>
<path d="M447.755 285.238C447.597 285.027 447.53 284.759 447.568 284.489C447.606 284.219 447.746 283.968 447.96 283.786C448.129 283.643 448.334 283.55 448.549 283.52C448.765 283.491 448.98 283.525 449.168 283.619C449.356 283.713 449.507 283.862 449.602 284.047C449.698 284.232 449.733 284.445 449.703 284.657C449.673 284.87 449.579 285.072 449.434 285.239C449.289 285.405 449.099 285.527 448.889 285.59C448.679 285.653 448.459 285.653 448.257 285.59C448.054 285.527 447.88 285.405 447.755 285.238Z" fill="#263238"/>
<path d="M449.772 283.875C449.638 283.982 449.057 283.358 448.095 283.218C447.132 283.077 446.321 283.475 446.243 283.34C446.164 283.205 446.356 283.07 446.706 282.883C447.181 282.645 447.712 282.559 448.22 282.638C448.727 282.71 449.187 282.946 449.528 283.309C449.811 283.599 449.854 283.828 449.772 283.875Z" fill="#263238"/>
<path d="M438.477 283.147C438.605 283.338 438.661 283.57 438.638 283.806C438.615 284.042 438.514 284.268 438.349 284.449C438.185 284.63 437.968 284.756 437.732 284.806C437.496 284.857 437.254 284.829 437.045 284.728C436.901 284.658 436.777 284.556 436.683 284.429C436.588 284.302 436.526 284.153 436.5 283.995C436.475 283.836 436.487 283.672 436.536 283.514C436.584 283.357 436.668 283.21 436.781 283.086C436.894 282.961 437.033 282.862 437.187 282.796C437.341 282.73 437.506 282.699 437.67 282.704C437.833 282.71 437.991 282.753 438.131 282.83C438.271 282.907 438.39 283.015 438.477 283.147Z" fill="#263238"/>
<path d="M439.069 283.236C438.935 283.344 438.354 282.719 437.381 282.578C436.408 282.437 435.618 282.836 435.529 282.7C435.44 282.565 435.643 282.431 436.004 282.245C436.478 282.006 437.007 281.92 437.515 281.999C438.023 282.077 438.482 282.316 438.824 282.681C439.108 282.961 439.171 283.201 439.069 283.236Z" fill="#263238"/>
<path d="M441.362 291.746C441.899 291.619 442.448 291.583 442.986 291.638C443.242 291.658 443.465 291.611 443.504 291.486C443.566 291.232 443.554 290.971 443.47 290.733L443.104 288.667C442.72 286.9 442.521 285.089 442.509 283.26C443.079 284.962 443.465 286.727 443.663 288.529C443.778 289.246 443.875 289.929 443.985 290.602C444.083 290.948 444.057 291.324 443.91 291.668C443.852 291.759 443.775 291.838 443.685 291.897C443.594 291.957 443.492 291.997 443.386 292.013C443.238 292.021 443.091 292.009 442.949 291.978C442.405 291.989 441.869 291.91 441.362 291.746Z" fill="#263238"/>
<path d="M438.004 292.372C437.116 291.626 440.472 294.227 442.465 294.406C442.032 294.866 441.463 295.178 440.849 295.291C440.236 295.404 439.614 295.312 439.085 295.029C437.141 293.965 438.004 292.372 438.004 292.372Z" fill="white"/>
<path d="M439.517 303.65C436.262 303.249 433.26 301.894 430.894 299.755C430.894 299.755 432.027 305.097 439.164 305.455L439.517 303.65Z" fill="#A36957"/>
<path d="M452.68 270.94C453.088 270.959 453.501 270.884 453.886 270.723C454.271 270.561 454.619 270.317 454.903 270.008C455.187 269.7 455.399 269.335 455.523 268.943C455.648 268.551 455.681 268.141 455.62 267.745C455.559 267.349 455.406 266.978 455.173 266.659C454.939 266.341 454.632 266.084 454.274 265.909C453.916 265.733 453.516 265.644 453.107 265.647C452.697 265.65 452.288 265.746 451.911 265.927C452.857 265.3 453.67 264.491 454.297 263.553C454.602 263.08 454.758 262.535 454.744 261.992C454.73 261.449 454.547 260.932 454.22 260.513C453.817 260.174 453.322 259.955 452.788 259.879C452.253 259.803 451.699 259.873 451.183 260.081C449.587 260.609 448.224 261.778 446.569 262.183C444.914 262.589 443.265 262.191 441.6 262.135C439.751 262.025 437.879 262.497 436.25 263.483C435.447 263.983 434.762 264.655 434.251 265.445C433.74 266.235 433.417 267.121 433.308 268.033C431.031 267.575 428.473 267.341 426.446 268.629C425.62 269.22 424.925 269.977 424.413 270.845C423.9 271.712 423.582 272.67 423.48 273.648C423.383 275.61 423.58 277.559 424.065 279.429C424.12 279.971 424.289 280.488 424.563 280.948L424.714 286.062L427.872 286.246L429.153 275.735C429.153 275.735 429.46 271.278 433.247 271.973C437.035 272.667 441.626 277.37 449.241 276.865C450.47 276.898 451.708 276.654 452.861 276.153C453.425 275.87 453.911 275.447 454.269 274.929C454.627 274.41 454.844 273.815 454.897 273.205C454.917 272.599 454.697 272.023 454.283 271.6C453.869 271.177 453.294 270.94 452.68 270.94Z" fill="#263238"/>
<path d="M425.965 280.04C425.812 279.974 420.803 278.915 420.433 284.964C420.063 291.013 426.34 288.988 426.364 288.818C426.388 288.649 425.965 280.04 425.965 280.04Z" fill="#B78876"/>
<path d="M424.638 286.678C424.638 286.678 424.52 286.744 424.336 286.826C424.079 286.932 423.796 286.941 423.545 286.849C423.168 286.602 422.87 286.257 422.681 285.849C422.492 285.44 422.42 284.983 422.471 284.524C422.483 284.008 422.614 283.494 422.856 283.022C422.924 282.832 423.036 282.659 423.184 282.518C423.332 282.376 423.511 282.27 423.705 282.209C423.829 282.178 423.958 282.19 424.069 282.244C424.179 282.298 424.265 282.39 424.311 282.504C424.384 282.67 424.336 282.784 424.366 282.797C424.397 282.81 424.509 282.701 424.469 282.452C424.449 282.3 424.372 282.164 424.253 282.07C424.175 282.008 424.085 281.962 423.986 281.936C423.888 281.91 423.784 281.904 423.681 281.918C423.416 281.967 423.164 282.082 422.95 282.254C422.736 282.425 422.569 282.646 422.464 282.894C422.169 283.414 422.01 283.992 422 284.573C421.936 285.107 422.033 285.639 422.279 286.101C422.524 286.563 422.908 286.935 423.381 287.169C423.542 287.217 423.714 287.227 423.884 287.2C424.054 287.172 424.219 287.108 424.364 287.01C424.618 286.816 424.658 286.69 424.638 286.678Z" fill="#A36957"/>
<path d="M391.731 416.016C394.263 421.007 409.574 451.563 435.744 432.28C469.079 407.739 495.763 386.041 495.763 386.041L497.018 439.9L524.725 440.58C524.725 440.58 525.247 360.576 519.455 352.842C513.023 344.21 505.968 344.341 439.945 386.247L391.731 416.016Z" fill="#455A64"/>
<path d="M502.835 333.599L531.15 317.004L532.126 319.107L503.95 335.938L502.835 333.599Z" fill="#263238"/>
<path d="M509.267 333.527C509.267 333.527 513.964 324.892 515.065 323.06C516.166 321.228 517.882 318.018 518.387 317.961C518.891 317.905 520.641 318.353 517.556 323.835C514.471 329.316 520.02 326.258 520.02 326.258L525.46 323.127C525.46 323.127 527.726 335.033 525.011 338.357C522.896 340.832 520.587 343.142 518.109 345.264L509.267 333.527Z" fill="#B78876"/>
<path d="M509.702 332.51C509.353 331.315 472.639 357.39 466 357.854L450.44 331.727C450.44 331.727 447.373 325.182 440.395 313.849C435.882 306.537 420.564 306.778 415.429 314.854C406.668 328.571 404.342 344.404 396.386 374.94L391.869 395.659C390.904 400.068 390.341 404.531 390.189 408.991C390.035 414.2 390.44 419.731 392.962 419.147L441.581 386.815L445.276 370.683C453.13 380.628 455.707 382.782 460.573 382.414C472.821 381.513 520.082 347.338 520.082 347.338C520.082 347.338 510.039 333.716 509.702 332.51Z" fill="#0F9D9D"/>
<path d="M513.72 352.101C512.942 351.526 512.243 350.855 511.639 350.104C510.078 348.38 508.646 346.545 507.354 344.61C506.051 342.682 504.895 340.657 503.894 338.549C503.437 337.696 503.076 336.79 502.819 335.849C503.361 336.643 503.837 337.479 504.246 338.352C505.105 339.91 506.314 342.042 507.821 344.283C509.329 346.524 510.824 348.464 511.947 349.839C512.594 350.547 513.186 351.303 513.72 352.101Z" fill="#263238"/>
<path d="M462.773 367.472C463.025 365.814 463.459 364.176 464.068 362.59C464.51 360.958 465.126 359.368 465.904 357.846C465.653 359.505 465.218 361.142 464.609 362.729C464.169 364.361 463.553 365.951 462.773 367.472Z" fill="#263238"/>
<path d="M467.079 366.782C466.611 365.382 466.324 363.919 466.227 362.427C465.956 360.971 465.86 359.477 465.939 357.978C466.408 359.378 466.695 360.841 466.791 362.332C467.06 363.79 467.157 365.283 467.079 366.782Z" fill="#263238"/>
<path d="M424.029 334.022C424.359 334.481 424.652 334.966 424.903 335.474L427.2 339.535C429.144 342.957 431.866 347.674 434.924 352.835L442.824 366.042L445.203 370.056C445.534 370.535 445.823 371.041 446.068 371.571C445.697 371.134 445.362 370.667 445.068 370.174C444.453 369.257 443.596 367.914 442.534 366.265C440.425 362.937 437.549 358.316 434.492 353.144C431.435 347.972 428.762 343.217 426.912 339.737C425.981 338.003 425.2 336.58 424.757 335.591C424.471 335.091 424.227 334.566 424.029 334.022Z" fill="#263238"/>
<path d="M415.494 354.533C414.455 353.808 413.536 352.935 412.764 351.938C411.85 351.06 411.074 350.054 410.456 348.948C411.501 349.672 412.424 350.55 413.196 351.554C414.113 352.421 414.887 353.425 415.494 354.533Z" fill="#263238"/>
<path d="M410.068 366.187C408.631 368.39 406.893 370.397 404.908 372.148C405.546 370.995 406.347 369.931 407.287 368.991C408.081 367.937 409.018 366.993 410.068 366.187Z" fill="#263238"/>
<path d="M412.989 383.086C412.858 383.172 412.043 382.143 411.154 380.797C410.536 380.022 410.069 379.136 409.775 378.18C409.906 378.094 410.721 379.123 411.61 380.469C412.23 381.243 412.697 382.129 412.989 383.086Z" fill="#263238"/>
<path d="M401.332 392.856C400.547 393.587 399.645 394.18 398.666 394.608C397.769 395.193 396.784 395.623 395.756 395.879C396.54 395.149 397.443 394.555 398.421 394.127C399.318 393.542 400.304 393.112 401.332 392.856Z" fill="#263238"/>
<path d="M415.143 396.773C414.082 396.194 413.212 395.338 412.623 394.291C411.882 393.338 411.422 392.192 411.291 390.97C411.451 390.908 412.032 392.369 413.094 393.942C414.155 395.516 415.259 396.643 415.143 396.773Z" fill="#263238"/>
<path d="M429.803 387.829C428.879 388.781 427.832 389.608 426.692 390.285C425.647 391.104 424.498 391.779 423.279 392.289C424.202 391.336 425.249 390.509 426.389 389.832C427.432 389.011 428.582 388.336 429.803 387.829Z" fill="#263238"/>
<path d="M399.813 404.968C398.107 403.993 396.866 402.406 396.331 400.513C396.471 400.438 397.128 401.519 398.089 402.731C399.051 403.943 399.924 404.869 399.813 404.968Z" fill="#263238"/>
<path d="M433.498 378.568C431.516 379.466 429.337 379.752 427.262 379.385C429.332 379.012 431.413 378.739 433.498 378.568Z" fill="#263238"/>
<path d="M425.21 366.649C424.807 367.924 424.27 369.161 423.609 370.34C423.088 371.536 422.501 372.707 421.85 373.846L421.733 373.837C421.742 373.773 421.809 373.757 421.83 373.759C421.852 373.76 421.83 373.759 421.814 373.875L421.697 373.866C422.002 372.603 422.459 371.372 423.057 370.2C423.568 368.914 424.297 367.713 425.21 366.649Z" fill="#263238"/>
<path d="M430.384 359.907C429.294 359.335 428.306 358.599 427.455 357.725C426.488 356.993 425.648 356.113 424.963 355.117C426.031 355.697 426.999 356.43 427.839 357.294C428.823 358.026 429.681 358.907 430.384 359.907Z" fill="#263238"/>
<path d="M424.049 343.65C423.577 344.676 422.902 345.609 422.064 346.388C421.354 347.28 420.477 348.031 419.485 348.597C420.102 347.657 420.833 346.792 421.662 346.024C422.352 345.136 423.155 344.337 424.049 343.65Z" fill="#263238"/>
<path d="M411.348 340.506C411.337 339.301 411.509 338.09 411.856 336.912C412.039 335.711 412.402 334.533 412.933 333.417C412.957 334.619 412.786 335.828 412.426 337C412.252 338.206 411.888 339.39 411.348 340.506Z" fill="#263238"/>
<path d="M402.973 363.473C402.862 362.182 402.932 360.871 403.178 359.577C403.253 358.275 403.509 356.978 403.939 355.724C403.99 358.317 403.664 360.926 402.973 363.473Z" fill="#263238"/>
<path d="M399.098 385.83C398.711 385.105 398.498 384.293 398.474 383.455C398.268 382.653 398.241 381.807 398.393 380.972C399.001 382.496 399.242 384.157 399.098 385.83Z" fill="#263238"/>
<path d="M426.021 323.984C425.037 324.883 423.989 325.711 422.886 326.46C421.896 327.354 420.839 328.171 419.724 328.902C420.469 327.776 421.434 326.801 422.557 326.038C423.567 325.129 424.747 324.43 426.021 323.984Z" fill="#263238"/>
<path d="M418.747 320.85C418.679 319.676 418.804 318.488 419.115 317.331C419.239 316.149 419.549 314.984 420.035 313.876C420.097 315.05 419.973 316.237 419.667 317.395C419.538 318.576 419.227 319.741 418.747 320.85Z" fill="#263238"/>
<path d="M437.805 319.798C435.969 318.436 434.216 316.97 432.555 315.408C434.69 316.373 436.499 317.886 437.805 319.798Z" fill="#263238"/>
<path d="M431.867 332.709C431.743 331.472 431.801 330.213 432.039 328.971C432.1 327.718 432.346 326.47 432.769 325.266C432.84 327.752 432.537 330.256 431.868 332.699L431.867 332.709Z" fill="#263238"/>
<path d="M441.724 341.311C439.63 340.715 437.566 340.038 435.536 339.28C437.795 339.321 439.95 340.028 441.724 341.311Z" fill="#263238"/>
<path d="M443.587 333.482C443.502 331.387 443.801 329.272 444.47 327.237C444.607 328.273 444.563 329.335 444.339 330.378C444.274 331.437 444.019 332.488 443.587 333.482Z" fill="#263238"/>
<path d="M450.061 347.38C449.903 346.07 449.936 344.734 450.159 343.411C450.198 342.082 450.422 340.755 450.825 339.465C450.937 342.103 450.68 344.766 450.061 347.38Z" fill="#263238"/>
<path d="M443.013 351.349C442.881 351.446 442.127 350.593 441.327 349.458C440.527 348.323 439.979 347.315 440.112 347.219C440.244 347.122 440.998 347.974 441.796 349.12C442.595 350.266 443.144 351.263 443.013 351.349Z" fill="#263238"/>
<path d="M450.262 358.094C449.207 358.355 448.126 358.444 447.063 358.357C445.977 358.457 444.894 358.372 443.86 358.105C444.91 357.831 445.99 357.742 447.049 357.841C448.139 357.728 449.228 357.814 450.262 358.094Z" fill="#263238"/>
<path d="M455.93 361.67C455.804 359.334 456.047 356.97 456.651 354.663C456.791 356.999 456.548 359.365 455.93 361.67Z" fill="#263238"/>
<path d="M460.308 373.753C458.994 373.896 457.679 373.792 456.434 373.448C455.14 373.295 453.903 372.896 452.79 372.272C454.076 372.368 455.343 372.582 456.574 372.913C457.852 373.069 459.102 373.35 460.308 373.753Z" fill="#263238"/>
<path d="M471.42 369.214C470.639 371.587 469.503 373.851 468.053 375.928C468.35 374.724 468.831 373.561 469.479 372.481C469.953 371.308 470.608 370.206 471.42 369.214Z" fill="#263238"/>
<path d="M480.206 360.429C478.02 360.024 475.94 359.255 474.052 358.155C476.235 358.574 478.313 359.342 480.206 360.429Z" fill="#263238"/>
<path d="M485.703 364.453C484.938 365.325 484.04 366.076 483.046 366.677C482.152 367.42 481.152 368.025 480.084 368.47C480.844 367.589 481.743 366.834 482.742 366.235C483.636 365.495 484.636 364.893 485.703 364.453Z" fill="#263238"/>
<path d="M489.345 355.875C488.902 354.78 488.703 353.592 488.759 352.387C488.618 351.193 488.74 349.967 489.116 348.792C489.295 349.958 489.362 351.144 489.317 352.335C489.439 353.505 489.448 354.69 489.345 355.875Z" fill="#263238"/>
<path d="M501.051 354.759C498.548 356.763 496.023 358.741 493.477 360.691C495.545 358.196 498.135 356.167 501.051 354.759Z" fill="#263238"/>
<path d="M502.757 350.788C501.556 350.52 500.415 350.068 499.374 349.449C498.238 349.011 497.189 348.396 496.264 347.629C497.46 347.901 498.597 348.352 499.636 348.966C500.771 349.412 501.823 350.026 502.757 350.788Z" fill="#263238"/>
<path d="M502.284 346.345C501.866 345.422 501.623 344.423 501.568 343.394C501.331 342.4 501.277 341.361 501.409 340.326C501.808 341.251 502.032 342.249 502.071 343.273C502.32 344.266 502.393 345.305 502.284 346.345Z" fill="#263238"/>
<path d="M438.21 372.186C438.068 372.271 437.278 371.147 436.533 369.695C435.968 368.859 435.567 367.92 435.35 366.922C436.061 367.638 436.629 368.481 437.026 369.412C437.582 370.254 437.982 371.192 438.21 372.186Z" fill="#263238"/>
<path d="M512.037 432.002C512.012 431.85 512.005 431.695 512.016 431.539C512.018 431.218 512.017 430.767 512.012 430.188C512.032 428.978 512.042 427.232 512.066 425.004C512.087 420.503 512.135 413.979 511.967 405.936C511.798 397.894 511.413 388.334 510.432 377.794C510.365 376.476 510.116 375.183 509.691 373.952C509.185 372.73 508.467 371.615 507.567 370.655C505.645 368.696 502.992 367.582 500.15 367.541C498.702 367.507 497.244 367.776 495.872 368.33C494.485 368.949 493.144 369.675 491.863 370.501L483.753 375.341C472.827 381.931 462.551 388.423 453.331 394.547C444.111 400.671 436.009 406.444 429.218 411.344C425.796 413.712 422.245 415.544 418.899 415.624C417.362 415.676 415.856 415.37 414.503 414.731C413.378 414.193 412.347 413.495 411.44 412.657C410.2 411.5 409.08 410.224 408.093 408.846L407.327 407.778C407.232 407.658 407.149 407.53 407.079 407.394C407.189 407.496 407.285 407.611 407.365 407.738L408.178 408.777C409.204 410.115 410.345 411.36 411.592 412.498C412.498 413.3 413.518 413.972 414.623 414.494C415.948 415.096 417.416 415.377 418.91 415.314C422.162 415.216 425.657 413.401 429.015 411.028C435.766 406.103 443.857 400.255 453.077 394.13C462.297 388.006 472.559 381.46 483.496 374.87L491.606 370.031C492.917 369.191 494.288 368.453 495.706 367.824C497.149 367.24 498.682 366.959 500.205 366.999C503.186 367.046 505.966 368.22 507.976 370.279C508.924 371.285 509.675 372.458 510.195 373.745C510.633 375.018 510.891 376.355 510.961 377.718C511.916 388.288 512.245 397.865 512.371 405.904C512.497 413.943 512.381 420.484 512.294 424.99C512.226 427.225 512.174 428.968 512.142 430.188C512.061 430.76 512.088 431.255 512.08 431.544C512.08 431.697 512.065 431.85 512.037 432.002Z" fill="#263238"/>
<path d="M524.588 432.389C524.227 432.468 523.86 432.497 523.497 432.475C522.792 432.495 521.777 432.501 520.527 432.488C518.016 432.462 514.564 432.372 510.752 432.233L500.99 431.883L498.029 431.757C497.669 431.771 497.311 431.742 496.962 431.673C497.323 431.587 497.691 431.552 498.056 431.566C498.762 431.536 499.779 431.52 501.032 431.511C503.548 431.505 507.003 431.574 510.816 431.702L520.579 432.117L523.534 432.285C523.891 432.276 524.245 432.311 524.588 432.389Z" fill="#263238"/>
<path d="M504.568 378.351C501.582 382.09 497.93 385.27 493.81 387.72C493.721 387.585 496.255 385.694 499.254 383.111C502.253 380.527 504.421 378.243 504.568 378.351Z" fill="#263238"/>
<path d="M505.148 381.656C503.554 382.633 501.895 383.495 500.185 384.235C498.547 385.147 496.847 385.938 495.102 386.6C496.598 385.459 498.228 384.506 499.949 383.766C501.596 382.849 503.343 382.14 505.148 381.656Z" fill="#263238"/>
<path d="M587.809 440.131C587.589 440.137 587.371 440.12 587.158 440.08L585.294 439.826L578.554 438.641L556.372 434.537C547.705 432.933 539.908 431.29 534.173 430.55C531.312 430.175 528.963 430 527.342 429.937L525.474 429.865C525.25 429.875 525.028 429.858 524.812 429.813C525.033 429.777 525.256 429.759 525.478 429.758C525.904 429.727 526.562 429.726 527.363 429.714C529.672 429.745 531.971 429.893 534.25 430.159C540.03 430.807 547.847 432.387 556.503 433.99L578.666 438.232L585.371 439.585L587.184 439.974C587.399 440.002 587.609 440.054 587.809 440.131Z" fill="#455A64"/>
<path d="M584.777 451.877C584.628 451.865 585.858 446.602 587.525 440.076C589.193 433.551 590.682 428.361 590.829 428.394C590.975 428.427 589.748 433.669 588.082 440.184C586.416 446.7 584.925 451.899 584.777 451.877Z" fill="#455A64"/>
</svg>
