<svg width="67" height="67" viewBox="0 0 67 67" fill="none" xmlns="http://www.w3.org/2000/svg">
<path d="M41.3518 14.3651C42.3982 13.1591 43.196 11.7583 43.6995 10.243C44.203 8.72782 44.4022 7.12807 44.2857 5.53564C41.0733 5.79496 38.0913 7.30585 35.9822 9.74279C34.9722 10.9108 34.2068 12.2695 33.7314 13.7386C33.2559 15.2077 33.0801 16.7572 33.2143 18.2955C34.7813 18.3085 36.3303 17.9608 37.7414 17.2793C39.1525 16.5977 40.3878 15.6006 41.3518 14.3651V14.3651ZM48.3268 34.958C48.3454 32.8371 48.904 30.7559 49.9501 28.9108C50.9961 27.0657 52.495 25.5175 54.3054 24.4124C53.1629 22.7662 51.6525 21.4089 49.8941 20.448C48.1357 19.4871 46.1776 18.9491 44.175 18.8767C39.8572 18.4339 35.8714 21.3955 33.5741 21.3955C31.2768 21.3955 28.0384 18.9321 24.4402 18.9874C22.0879 19.0649 19.7958 19.7508 17.7875 20.978C15.7792 22.2053 14.1233 23.9322 12.9813 25.9901C8.10982 34.4598 11.7357 47.0535 16.6071 53.8901C18.8214 57.2392 21.5893 61.0312 25.2429 60.8928C28.8964 60.7544 30.0866 58.6232 34.3214 58.6232C38.5563 58.6232 39.8572 60.8928 43.4554 60.8098C47.0536 60.7267 49.6 57.3776 51.925 54.0285C53.572 51.597 54.8586 48.94 55.7447 46.1401C53.5511 45.2046 51.6796 43.6471 50.3613 41.6598C49.043 39.6726 48.3357 37.3427 48.3268 34.958V34.958Z" fill="black"/>
</svg>
