<svg width="73" height="90" viewBox="0 0 73 90" fill="none" xmlns="http://www.w3.org/2000/svg">
<path d="M39.6027 0.369568L0 13.2229V77.9353L39.8846 89.5L73 85.66L72.9915 83.4391V4.76296L39.6027 0.369568ZM36.4338 4.04991L36.3484 85.5597L2.2336 76.175L2.12256 15.0909L36.4338 4.04991ZM42.1951 4.47328L69.5279 7.70055V82.6778L42.178 85.634L42.1951 4.47328ZM43.6044 5.83252L43.6343 84.3379L68.1826 81.6379V8.64384L43.6044 5.83252ZM34.4137 6.80924L20.4911 11.1766V29.4632L34.4949 27.896L34.4137 6.80924ZM18.9963 11.834L3.46358 16.2422V31.1827L19.0945 29.6675L18.9963 11.834ZM28.0076 11.8897C28.8283 11.905 29.6097 12.1981 30.1857 12.7067C32.4535 14.571 32.6755 17.9431 32.0648 20.4165C31.5182 22.6299 29.7714 25.9017 26.6068 25.6566C26.0431 25.612 24.9199 25.3632 24.6038 24.8879L24.5953 24.8804L24.9284 24.1191C26.1456 24.5722 27.2602 24.9027 28.5116 24.2677C29.7202 23.6512 30.5231 22.3996 30.9801 21.2855C31.8812 19.1018 31.8812 16.1531 30.2498 14.2294C28.2639 11.8897 25.4409 13.1152 24.0913 15.2989C23.5233 16.4016 23.1628 17.5765 23.0236 18.7787C22.9829 19.3254 23.0072 19.8742 23.0962 20.4165C23.1817 21.0404 23.5532 21.6829 23.4635 22.3142C23.4379 22.5073 23.3055 22.6299 23.0578 22.667C21.5844 20.513 22.3873 17.0667 23.4934 14.9387C24.2835 13.416 26.1199 11.8785 28.0076 11.8934V11.8897ZM12.7012 15.6146L11.0185 19.6923L12.714 18.9013L7.7984 28.7613L7.78986 28.7539L9.93377 21.668L8.55005 22.2437L10.4548 16.1754L12.7012 15.6146ZM27.2901 16.3611C27.4446 16.3577 27.5983 16.3804 27.7428 16.4279C29.5536 17.0295 28.9984 19.7109 28.2126 20.7619C27.7983 21.3226 27.0937 21.3449 26.4018 21.3449V21.3561C26.1199 20.4648 27.4182 19.8557 27.7087 19.1724C27.8795 18.7713 27.7001 18.4333 27.5165 18.0954C27.0809 17.8986 26.7221 18.0137 26.5641 18.4036C26.3264 19.0275 25.949 19.6043 25.4537 20.1008C25.2984 19.5704 25.2698 19.0179 25.3697 18.4776C25.4696 17.9372 25.6959 17.4203 26.0345 16.959C26.1768 16.7823 26.3642 16.6368 26.5821 16.5337C26.7999 16.4306 27.0423 16.3728 27.2901 16.3648V16.3611ZM26.7008 16.9107C26.5299 16.9107 26.389 17.1038 26.389 17.3341C26.389 17.568 26.5299 17.7574 26.7008 17.7574C26.8716 17.7574 27.0083 17.5643 27.0083 17.3341C27.0083 17.0964 26.8673 16.9107 26.7008 16.9107ZM27.9051 16.9107C27.7343 16.9107 27.5976 17.1038 27.5976 17.3341C27.5976 17.568 27.7386 17.7574 27.9051 17.7574C28.0759 17.7574 28.2169 17.5643 28.2169 17.3341C28.2169 17.0964 28.0759 16.9107 27.9051 16.9107ZM25.9406 17.8911C25.7697 17.8911 25.6331 18.088 25.6331 18.3182C25.6331 18.5522 25.774 18.7416 25.9448 18.7416C26.1157 18.7416 26.2523 18.5447 26.2523 18.3182C26.2523 18.0805 26.1114 17.8911 25.9448 17.8911H25.9406ZM28.3877 18.114C28.2169 18.114 28.0802 18.3108 28.0802 18.541C28.0802 18.775 28.2211 18.9644 28.3877 18.9644C28.5585 18.9644 28.6995 18.7676 28.6995 18.541C28.6995 18.3034 28.5585 18.114 28.3877 18.114ZM26.6965 19.3729H26.705C26.7477 19.4249 26.7477 19.4769 26.7221 19.5252C25.8893 21.1592 25.0693 22.797 24.2323 24.4422C24.1554 24.4125 24.1084 24.4125 24.0828 24.3902C23.8051 24.0817 23.574 23.7434 23.3952 23.3838C23.314 23.2427 23.4037 23.1053 23.502 22.9901L26.3933 19.6329C26.4697 19.5282 26.5718 19.4394 26.6922 19.3729H26.6965ZM27.9991 19.4286C27.8282 19.4286 27.6916 19.6255 27.6916 19.852C27.6916 20.0897 27.8325 20.2791 27.9991 20.2791C28.1742 20.2791 28.3108 20.0822 28.3108 19.852C28.3108 19.618 28.1699 19.4286 27.9991 19.4286ZM27.2303 20.2568C27.0595 20.2568 26.9186 20.4499 26.9186 20.6802C26.9186 20.9178 27.0595 21.1035 27.2303 21.1035C27.4012 21.1035 27.5378 20.9104 27.5378 20.6802C27.5378 20.4425 27.3969 20.2568 27.2303 20.2568ZM45.5305 21.3524L66.8501 21.9317L66.8587 23.4209L45.5305 23.1981V21.3524ZM34.2557 29.894L20.4825 31.3795L20.4569 57.1679L34.149 57.5393L34.2557 29.894ZM19.0476 31.5058L3.55327 32.7648L3.66004 56.3138L19.0091 57.0825L19.0476 31.5058ZM57.211 33.5112C58.6204 33.5261 59.9785 34.5771 60.7643 36.4154L66.6024 36.4451L66.7433 41.195L60.7387 41.4178C59.7692 45.2802 54.9304 44.9199 53.8286 41.6332L45.68 41.8709L45.6629 36.6531L53.5467 36.4005C54.5247 34.3877 55.8871 33.4927 57.211 33.5112ZM57.2879 35.0339C56.5639 35.0339 55.8694 35.4523 55.357 36.1973C54.8445 36.9423 54.556 37.953 54.5546 39.0076C54.5543 39.5307 54.6247 40.0488 54.7619 40.5323C54.8992 41.0157 55.1004 41.455 55.3543 41.8251C55.6081 42.1952 55.9095 42.4888 56.2413 42.6891C56.5731 42.8894 56.9287 42.9925 57.2879 42.9925C58.0128 42.9925 58.708 42.573 59.2206 41.8264C59.7332 41.0798 60.0212 40.0672 60.0212 39.0113C60.0212 37.9555 59.7332 36.9428 59.2206 36.1962C58.708 35.4496 58.0128 35.0302 57.2879 35.0302V35.0339ZM8.7764 36.2668L10.348 37.4515L17.2538 37.2361L17.2966 37.7115L10.1644 37.9418L8.41339 36.6308L8.7764 36.2668ZM7.72579 37.0653C7.92175 37.0579 8.11305 37.1185 8.25762 37.2338C8.40218 37.3491 8.48817 37.5095 8.49667 37.6799C8.50516 37.8503 8.43547 38.0167 8.30291 38.1424C8.17036 38.2681 7.98581 38.3429 7.78986 38.3503C7.64422 38.3544 7.50042 38.321 7.37656 38.2543C7.25269 38.1875 7.15429 38.0904 7.09372 37.9752L5.09928 38.0495L5.07366 37.5741L7.0681 37.4998C7.11648 37.3792 7.20467 37.2737 7.32165 37.1964C7.43862 37.1191 7.57919 37.0735 7.72579 37.0653ZM29.0155 38.0495C29.2461 38.4505 29.007 39.1896 29.4896 39.2861C30.143 39.4198 30.2327 39.5647 30.3907 40.0957C30.4633 40.3334 30.3565 40.4486 30.6384 40.586C30.9459 40.7382 31.3089 40.6937 31.3174 41.0539C31.326 41.5478 31.0783 41.4773 30.6469 41.4773C30.4889 41.4773 30.4334 41.7372 30.4249 41.8375C30.3907 42.2015 30.4633 42.2757 30.869 42.376C31.39 42.506 31.2961 42.6285 31.2961 43.0445C31.2961 43.2524 31.3431 43.1373 31.027 43.193C30.5231 43.2747 30.4078 43.2153 30.4334 43.7129C30.4718 44.3109 31.6164 43.8244 31.2875 44.6785C31.1509 45.0499 30.4547 44.764 30.4547 45.087C30.4547 45.4956 30.3565 45.6813 30.9288 45.7184C31.4925 45.7555 31.4584 46.4166 30.963 46.5651C30.664 46.658 30.5572 46.5577 30.4505 46.8697C30.348 47.1853 30.3565 47.5159 30.2241 47.8352C29.686 48.1769 29.1991 47.7015 29.1991 48.4777C29.1991 48.6857 29.1479 48.838 29.1052 49.0348C29.024 49.421 28.9087 49.0905 28.5927 49.1759C28.5073 49.0831 28.5927 48.5706 28.5927 48.448C28.5927 48.0841 28.4518 48.0023 27.9734 48.0321C27.9478 48.4777 27.9564 48.9531 27.5464 49.2762C27.2901 49.1276 27.1919 48.9048 27.1705 48.6523C27.1449 48.1546 27.1876 48.1398 26.5983 48.0172C26.4809 48.3792 26.4375 48.7563 26.4701 49.1313C26.0089 49.3319 25.9363 48.7154 25.9363 48.4703C25.9363 48.2623 26.0345 48.0321 25.7356 47.9541C25.4366 47.8872 25.3298 48.0172 25.3213 48.2512C25.3042 48.7228 25.2786 48.9308 24.8515 49.1908C24.6807 48.7785 24.8259 48.0618 24.2707 47.9281C23.6514 47.7944 23.5746 47.4007 23.566 46.8882C23.5532 46.3274 22.7802 46.8622 22.7802 46.2569C22.7802 46.1975 22.7247 45.8818 22.7802 45.8335C23.0364 45.6738 23.2927 45.9264 23.5276 45.8409C23.6429 45.5661 23.6856 45.1502 23.3439 45.0796C22.9895 45.0128 22.6564 44.9756 22.7332 44.6191C22.8315 44.1809 22.7418 44.2069 23.2884 44.1735C23.707 44.1512 23.5532 43.7761 23.566 43.531C23.0151 43.3081 22.7887 43.5904 22.7887 42.9591C22.7887 42.532 22.7503 42.5691 23.2457 42.5691C23.6728 42.5691 23.5447 42.4391 23.5447 42.0863C23.5447 41.6927 22.7332 42.038 22.6991 41.4995C22.682 41.2693 22.7845 41.0687 23.0407 40.987C23.4934 40.8311 23.5447 40.8088 23.566 40.3854C23.5916 39.7726 24.0572 39.7021 24.6209 39.457L24.6124 39.4495C24.6038 39.0559 24.6124 38.6808 24.8942 38.3577C25.4238 38.3726 25.3298 39.1005 25.3384 39.457C26.2438 39.8469 25.7655 38.6251 26.2352 38.2797C26.9058 38.2203 26.184 39.509 26.846 39.4941C27.2773 39.4867 27.1876 39.3084 27.1791 38.9816C27.1705 38.6808 27.2175 38.38 27.5165 38.1906C28.2425 38.4283 27.5848 39.587 28.503 39.4013C28.503 38.911 28.4176 38.3131 29.0155 38.0495ZM16.2588 38.5322C16.3559 38.5293 16.4528 38.5431 16.5438 38.573C16.6348 38.6028 16.7181 38.648 16.7888 38.7061C16.8595 38.7641 16.9162 38.8338 16.9558 38.911C16.9953 38.9883 17.0168 39.0716 17.019 39.1562C17.0224 39.2407 17.0065 39.3249 16.9721 39.404C16.9378 39.4831 16.8858 39.5556 16.819 39.617C16.7523 39.6785 16.6722 39.7279 16.5833 39.7623C16.4945 39.7966 16.3987 39.8153 16.3015 39.8172C16.1597 39.8209 16.0198 39.7889 15.8986 39.725C15.7773 39.661 15.6799 39.568 15.6181 39.457L13.3845 39.5127C13.3197 39.6489 13.2024 39.7613 13.0526 39.8306C12.9029 39.8998 12.7302 39.9216 12.564 39.8922C12.3978 39.8627 12.2486 39.7839 12.142 39.6693C12.0353 39.5547 11.9779 39.4113 11.9795 39.2639C11.976 39.1797 11.9918 39.0957 12.0259 39.0168C12.0599 38.938 12.1116 38.8657 12.1779 38.8043C12.2442 38.7428 12.3238 38.6934 12.4121 38.6588C12.5005 38.6242 12.5958 38.6052 12.6927 38.6028V38.5954C12.8491 38.5929 13.0024 38.6331 13.1312 38.7104C13.2599 38.7877 13.3575 38.8981 13.4102 39.0262L15.5797 38.9742C15.6283 38.8498 15.7192 38.7412 15.8406 38.6629C15.9619 38.5846 16.1078 38.5403 16.2588 38.536V38.5322ZM11.1082 39.4718L17.4076 47.4564L16.9378 47.709L10.7538 39.9398L5.10782 40.2406L5.09074 39.7801L11.1082 39.4718ZM17.5186 40.0549L17.4845 40.7456L16.9036 41.4773C16.9708 41.5911 16.9973 41.7198 16.9798 41.8468C16.9623 41.9739 16.9016 42.0935 16.8054 42.1903V42.1829C16.6768 42.3114 16.4948 42.3902 16.2994 42.402C16.104 42.4139 15.9112 42.3578 15.7634 42.246C15.6908 42.191 15.6314 42.1241 15.5886 42.0491C15.5459 41.9741 15.5206 41.8925 15.5143 41.809C15.5079 41.7255 15.5206 41.6417 15.5516 41.5625C15.5827 41.4832 15.6314 41.4101 15.695 41.3473C15.791 41.2509 15.9179 41.1818 16.0595 41.1487C16.2011 41.1156 16.3508 41.1201 16.4894 41.1616L17.5186 40.0549ZM14.5419 41.221C14.6624 41.2177 14.7818 41.2407 14.8893 41.2881C14.9968 41.3355 15.0888 41.4057 15.1569 41.4921C15.332 41.7149 15.332 41.9935 15.174 42.2089L17.4247 45.1279L17.4332 45.8818L14.7256 42.4763C14.5831 42.5072 14.4332 42.4995 14.2958 42.4544C14.1585 42.4093 14.0402 42.3288 13.9568 42.2237L13.9483 42.2312C13.8374 42.0916 13.7944 41.9196 13.8288 41.7526C13.8633 41.5856 13.9722 41.4372 14.1319 41.3399C14.2517 41.2652 14.3946 41.2238 14.5419 41.221ZM10.8862 41.4847C10.9832 41.4813 11.08 41.4945 11.1712 41.5237C11.2623 41.5528 11.346 41.5972 11.4173 41.6545C11.4887 41.7117 11.5465 41.7806 11.5872 41.8573C11.628 41.9339 11.651 42.0168 11.6549 42.1012C11.6588 42.1856 11.6436 42.2698 11.6101 42.349C11.5766 42.4283 11.5255 42.501 11.4596 42.5631C11.3938 42.6252 11.3145 42.6754 11.2264 42.7108C11.1383 42.7462 11.043 42.7662 10.9459 42.7697C10.7998 42.7735 10.6557 42.7395 10.5318 42.6721C10.4079 42.6047 10.3097 42.5068 10.2498 42.3908L5.20605 42.6137L5.18042 42.1383L10.2242 41.9155C10.2735 41.795 10.3627 41.6899 10.4804 41.6132C10.5982 41.5366 10.7393 41.4919 10.8862 41.4847ZM12.4279 44.0212L14.1063 45.8409C14.2167 45.7859 14.3421 45.7576 14.4693 45.7592C14.875 45.7592 15.2082 46.0489 15.2082 46.4017C15.207 46.5722 15.129 46.7354 14.9908 46.8563C14.8526 46.9771 14.6653 47.046 14.4693 47.0479C14.2726 47.0469 14.0842 46.9785 13.9451 46.8576C13.806 46.7366 13.7273 46.5728 13.7262 46.4017C13.7262 46.3423 13.7433 46.2792 13.7604 46.216L12.2186 44.5077L5.27438 44.6562L5.2573 44.1735L12.4279 44.0212ZM7.65746 45.6404H7.666C7.91798 45.6441 8.13579 45.7592 8.25537 45.9264L12.492 46.0266L14.1576 47.787C14.2675 47.7306 14.3929 47.7011 14.5206 47.7015C14.9263 47.7015 15.2637 47.9949 15.2637 48.3477C15.2626 48.5188 15.1839 48.6826 15.0448 48.8036C14.9057 48.9246 14.7173 48.993 14.5206 48.9939C14.3238 48.993 14.1355 48.9246 13.9963 48.8036C13.8572 48.6826 13.7786 48.5188 13.7775 48.3477C13.7816 48.2847 13.7945 48.2224 13.8159 48.162L12.2784 46.5094L8.35359 46.4091C8.31555 46.5407 8.22808 46.6574 8.10507 46.7409C7.98206 46.8243 7.83054 46.8696 7.67455 46.8697C7.50089 46.854 7.34 46.7831 7.22271 46.6706C7.10543 46.5582 7.03998 46.412 7.03892 46.2602C7.03787 46.1084 7.10127 45.9616 7.21698 45.8479C7.33269 45.7342 7.49258 45.6616 7.666 45.6441H7.65746V45.6404ZM5.74843 46.4017C6.00468 46.4017 6.19259 46.4537 6.38905 46.7174C6.96987 47.5084 7.51653 48.3217 8.07172 49.1313C8.34505 49.5287 8.62692 49.9298 8.90879 50.3197C9.31452 50.888 9.42128 50.9362 10.1986 50.9808C10.7538 51.0142 11.3175 51.0142 11.8812 51.0142C12.4663 51.0142 12.4492 50.5909 13.0044 50.6354C13.4785 51.0291 13.4785 51.5341 13.0044 51.9278C12.4749 51.9575 12.5347 51.4822 12.1375 51.4822H10.4505C9.6092 51.4822 9.35722 51.6418 8.92161 51.0514L5.9577 46.9328H5.2274V46.4203C5.4324 46.4203 5.60323 46.4054 5.75271 46.4054L5.74843 46.4017ZM12.1546 47.6644C12.2514 47.6614 12.3479 47.6751 12.4386 47.7048C12.5294 47.7344 12.6124 47.7793 12.6831 47.8369C12.7537 47.8946 12.8106 47.9638 12.8504 48.0406C12.8901 48.1175 12.912 48.2004 12.9148 48.2846C12.9182 48.3688 12.9024 48.4528 12.8684 48.5316C12.8343 48.6105 12.7826 48.6828 12.7164 48.7442C12.6501 48.8056 12.5704 48.8551 12.4821 48.8896C12.3937 48.9242 12.2984 48.9433 12.2015 48.9456C12.0591 48.9501 11.9182 48.9184 11.7962 48.8544C11.6741 48.7905 11.576 48.697 11.514 48.5854L9.55368 48.6226C9.48436 48.7529 9.36657 48.8591 9.21932 48.9241C9.07207 48.989 8.90393 49.009 8.74206 48.9806C8.58018 48.9523 8.434 48.8774 8.3271 48.7679C8.2202 48.6585 8.15882 48.5209 8.15287 48.3774C8.14945 48.2932 8.16522 48.2093 8.19927 48.1304C8.23332 48.0515 8.28498 47.9793 8.35127 47.9179C8.41757 47.8564 8.49718 47.807 8.58554 47.7724C8.67389 47.7378 8.76924 47.7188 8.86609 47.7164V47.709C9.02176 47.7072 9.17416 47.7478 9.30203 47.8251C9.42989 47.9023 9.52683 48.0123 9.5793 48.1398L11.4755 48.1026C11.5243 47.9776 11.616 47.8686 11.7381 47.7903C11.8603 47.7119 12.0071 47.668 12.1588 47.6644H12.1546ZM16.2758 48.3366C16.3769 48.3351 16.4773 48.3519 16.5705 48.3858C16.6638 48.4198 16.7479 48.4703 16.8176 48.534C16.8872 48.5977 16.9409 48.6733 16.9752 48.756C17.0096 48.8387 17.0238 48.9267 17.0169 49.0144C17.0101 49.1021 16.9824 49.1877 16.9356 49.2656C16.8888 49.3435 16.8239 49.4121 16.745 49.4671C16.6661 49.5221 16.5749 49.5622 16.4772 49.585C16.3796 49.6077 16.2776 49.6126 16.1776 49.5993L13.9739 52.4217L13.3931 52.4254L15.7121 49.3542C15.6328 49.2607 15.5843 49.1501 15.5718 49.0345C15.5594 48.9188 15.5834 48.8024 15.6414 48.6977C15.6994 48.593 15.7891 48.5041 15.9009 48.4405C16.0127 48.3768 16.1423 48.3409 16.2758 48.3366ZM5.86802 48.3849C6.04599 48.3969 6.21218 48.4669 6.33341 48.5808C6.45464 48.6948 6.52198 48.8443 6.52198 48.9995C6.52198 49.1547 6.45464 49.3042 6.33341 49.4182C6.21218 49.5321 6.04599 49.6021 5.86802 49.6141C5.69005 49.6021 5.52385 49.5321 5.40262 49.4182C5.28139 49.3042 5.21405 49.1547 5.21405 48.9995C5.21405 48.8443 5.28139 48.6948 5.40262 48.5808C5.52385 48.4669 5.69005 48.3969 5.86802 48.3849ZM7.42257 50.4757C7.61475 50.4757 7.80267 50.5389 7.94787 50.6651C8.01774 50.7243 8.07327 50.795 8.11118 50.8732C8.1491 50.9513 8.16863 51.0353 8.16863 51.1201C8.16863 51.2049 8.1491 51.2888 8.11118 51.367C8.07327 51.4451 8.01774 51.5158 7.94787 51.575C7.8802 51.6356 7.79921 51.6839 7.70971 51.7168C7.62021 51.7497 7.52402 51.7667 7.42684 51.7667C7.32966 51.7667 7.23347 51.7497 7.14397 51.7168C7.05447 51.6839 6.97349 51.6356 6.90581 51.575C6.85546 51.5281 6.81238 51.4757 6.77769 51.419L6.14989 51.3967L5.45375 52.2435L5.04803 51.9092L5.90218 50.9214L6.72217 50.9437C6.75661 50.8393 6.81962 50.7437 6.90581 50.6651C6.97327 50.6057 7.05377 50.5586 7.14253 50.5267C7.2313 50.4948 7.32653 50.4787 7.42257 50.4794V50.4757ZM16.6346 50.9808C16.8908 50.9845 17.1855 51.0291 17.3606 51.0291C17.3862 51.2445 17.4033 51.4376 17.2325 51.627C16.9293 51.6344 16.6346 51.5193 16.3356 51.497L15.8103 52.1283C15.9128 52.3252 16.2502 52.1395 16.31 52.4032C16.2246 52.7188 15.5242 52.4403 15.285 52.4737C15.1654 52.1395 16.0281 51.2965 16.2502 51.0254C16.3729 50.9856 16.5042 50.9704 16.6346 50.9808ZM52.8164 52.1581V80.91L46.6153 81.5562L46.5982 52.4477L52.8164 52.1581ZM3.77535 58.1669L3.75826 66.0587L10.9844 66.9166L11.0271 58.62L3.77535 58.1669ZM12.0948 58.6423V76.7061L24.5953 79.9816V59.3553L12.0948 58.6423ZM26.2438 59.4742L26.2993 80.8098L27.1535 81.04C27.7941 79.1274 28.9472 79.8665 29.024 81.56L30.6726 81.987C30.6896 79.9705 32.6926 80.6946 32.3595 82.4216L33.8842 82.9155L33.8329 59.9347L32.7097 59.8716C32.9574 61.9921 30.5231 61.9698 30.9117 59.7713L29.118 59.671C29.4041 61.7099 26.9485 61.6542 27.3286 59.541L26.2438 59.4742ZM6.53853 60.3469L7.71725 62.6012L8.44328 61.4499L10.1345 64.7812L4.61668 64.0384L6.53853 60.3469ZM9.57076 60.3952C9.9594 60.3952 10.2669 60.6626 10.2669 61.0005C10.268 61.0805 10.2508 61.1598 10.2163 61.2339C10.1818 61.308 10.1306 61.3754 10.0658 61.4321C10.001 61.4888 9.92383 61.5337 9.83883 61.5642C9.75383 61.5947 9.6627 61.6101 9.57076 61.6096C9.47882 61.6101 9.38769 61.5947 9.30269 61.5642C9.21769 61.5337 9.14053 61.4888 9.07572 61.4321C9.01091 61.3754 8.95975 61.308 8.92522 61.2339C8.89069 61.1598 8.87349 61.0805 8.87463 61.0005C8.87463 60.6663 9.18212 60.3952 9.57076 60.3952ZM27.0937 62.2447L33.0813 62.7906V67.923L27.0937 67.1617V62.2447ZM17.5272 62.3152C18.2874 62.3598 19.0091 62.4935 19.5942 62.9763C20.9096 64.0681 18.5778 66.1812 19.6284 67.4625C20.5722 66.6715 20.5551 65.6873 21.2684 64.8517C21.9773 65.6428 22.5923 67.2322 22.477 68.2387C21.8705 68.8774 21.3837 69.2414 19.9273 69.3305C19.97 69.6128 19.7693 69.8839 19.859 70.2144C20.6363 70.9349 21.4904 70.8197 22.5154 70.7678C22.6564 71.3991 21.9218 73.3488 21.3751 73.8168C20.2647 73.3785 19.6924 72.4427 19.0732 71.5811C18.8605 71.7128 18.6707 71.8704 18.5094 72.049C18.6589 73.0406 20.0982 74.2995 19.9103 75.176C19.432 75.3957 18.8892 75.4862 18.3514 75.436C17.8048 75.3691 17.5827 75.1091 17.4546 74.6004C17.1599 73.4751 17.7322 72.0861 16.6431 71.2803C16.1093 72.1938 16.2588 73.204 16.1178 74.1956C15.2637 74.0099 14.6444 72.5244 14.4779 71.8893C14.6273 71.128 15.0843 70.5672 15.6139 69.9767C15.8616 69.6982 15.9427 69.4197 15.7847 69.1003C15.7206 68.9777 15.7292 68.8217 15.6053 68.7215C14.8366 68.8366 14.3796 69.3528 13.8543 69.7985C13.2564 69.26 13.3931 67.236 13.8671 66.6418C14.2169 66.5923 14.5748 66.6063 14.918 66.683C15.2613 66.7597 15.5825 66.8974 15.8616 67.0874C16.3314 66.6863 16.357 66.2964 15.9427 65.8804C15.6224 65.5648 14.6444 65.1971 14.4693 64.874C14.3284 64.3912 15.3662 62.7572 15.994 62.7831C16.6816 63.667 17.0873 64.666 17.3179 65.7096C17.5571 65.795 17.7663 65.873 18.0439 65.8247C18.1806 64.6363 17.8731 63.4999 17.4418 62.3858C17.4845 62.3486 17.5101 62.3152 17.5272 62.3152ZM3.73264 67.1617V75.0349L11.0271 76.5835L11.1082 68.1013L3.73264 67.1617ZM27.1022 68.0716L33.0813 68.9072V74.0879L27.1022 72.9737V68.0716ZM7.45674 69.1857L7.51653 74.3775L6.07728 72.7732L4.79179 72.5281V70.3072L6.00041 70.4595L7.45674 69.1857ZM9.1565 69.5385C9.17521 69.5396 9.19378 69.5421 9.21202 69.5459C9.37004 69.8616 9.55368 70.1847 9.66045 70.5301C10.1003 71.9896 10.1003 73.4008 9.1565 74.7786L9.14795 74.7712C8.97713 74.4852 9.0241 74.2698 9.13941 74.0173C9.41274 73.3934 9.66045 72.7546 9.6092 72.0824C9.57531 71.4931 9.43701 70.9119 9.1992 70.3592C9.0961 70.131 8.99927 69.9007 8.90879 69.6685C8.97285 69.5868 9.03692 69.5311 9.1565 69.5385ZM8.54578 70.077C8.63119 70.0807 8.66536 70.129 8.69098 70.1773C8.87463 70.5041 9.00702 70.8346 9.08816 71.1985C9.17358 71.6182 9.13087 72.0341 9.16504 72.4501C9.19066 72.7175 9.09671 72.9812 9.04973 73.2337C9.02599 73.3858 8.96194 73.5311 8.86263 73.6581C8.76332 73.785 8.63147 73.8902 8.47745 73.9653V73.9727H8.46891L8.47745 73.9653C8.45182 73.7165 8.55859 73.4937 8.61838 73.2708C8.7038 72.9366 8.84046 72.5949 8.89171 72.257C8.96431 71.8262 8.8063 71.4139 8.67817 70.9943L8.48599 70.4224C8.45182 70.2998 8.4262 70.1847 8.50307 70.077H8.54578ZM8.02048 70.6786C8.06745 70.6786 8.11016 70.6861 8.16141 70.6972C8.40245 71.1945 8.51051 71.7329 8.47745 72.2718C8.46891 72.4798 8.37922 72.6655 8.32797 72.8586C8.28526 73.0034 8.16995 73.0889 8.02902 73.1557C7.91371 73.0554 7.94787 72.9663 7.9735 72.866C8.0461 72.5801 8.11443 72.3053 8.12297 72.0119C8.14433 71.5662 7.98204 71.1503 7.86673 70.712H7.85819C7.90923 70.6917 7.96438 70.6804 8.02048 70.6786ZM27.1022 73.7796L33.0642 74.9606V80.0967L27.1022 78.6669V73.7796Z" fill="#41B3CC"/>
</svg>
