<svg width="57" height="57" viewBox="0 0 57 57" fill="none" xmlns="http://www.w3.org/2000/svg">
<g clip-path="url(#clip0_20_22)">
<path d="M14.4744 55.9858C12.3012 55.9616 10.1485 55.563 8.11065 54.8076C6.62256 54.2575 5.2762 53.3818 4.17001 52.2446C3.02967 51.1406 2.1527 49.7939 1.60425 48.3045C0.849475 46.2668 0.451461 44.1142 0.427675 41.9413C0.260773 38.329 0.227173 37.2455 0.227173 28.0923C0.227173 18.9392 0.264078 17.8596 0.426022 14.2445C0.452695 12.0724 0.851198 9.92098 1.60425 7.88348C2.15537 6.39514 3.0311 5.04824 4.16781 3.94064C5.27263 2.80132 6.61962 1.92516 8.109 1.37708C10.1468 0.621676 12.2996 0.223102 14.4727 0.19885C18.0862 0.0336006 19.1713 0 28.3195 0C37.4677 0 38.5523 0.0369056 42.1674 0.19885C44.34 0.225334 46.492 0.62384 48.53 1.37708C50.0187 1.92589 51.3654 2.80174 52.4706 3.94009C53.6093 5.04574 54.4856 6.39271 55.0348 7.88183C55.7904 9.91961 56.1891 12.0724 56.2135 14.2456C56.3788 17.8607 56.4124 18.943 56.4124 28.0934C56.4124 37.2438 56.3788 38.3262 56.2135 41.9413C56.1873 44.1142 55.7886 46.2664 55.0348 48.3045C54.4645 49.7825 53.5912 51.1247 52.4709 52.2447C51.3505 53.3647 50.0081 54.2377 48.53 54.8076C46.4922 55.5632 44.3395 55.9619 42.1663 55.9864C38.5545 56.1516 37.4688 56.1852 28.3184 56.1852C19.168 56.1852 18.0856 56.1533 14.4738 55.9864" fill="url(#paint0_radial_20_22)"/>
<path d="M14.4744 55.9858C12.3012 55.9616 10.1485 55.563 8.11065 54.8076C6.62256 54.2575 5.2762 53.3818 4.17001 52.2446C3.02967 51.1406 2.1527 49.7939 1.60425 48.3045C0.849475 46.2668 0.451461 44.1142 0.427675 41.9413C0.260773 38.329 0.227173 37.2455 0.227173 28.0923C0.227173 18.9392 0.264078 17.8596 0.426022 14.2445C0.452695 12.0724 0.851198 9.92098 1.60425 7.88348C2.15537 6.39514 3.0311 5.04824 4.16781 3.94064C5.27263 2.80132 6.61962 1.92516 8.109 1.37708C10.1468 0.621676 12.2996 0.223102 14.4727 0.19885C18.0862 0.0336006 19.1713 0 28.3195 0C37.4677 0 38.5523 0.0369056 42.1674 0.19885C44.34 0.225334 46.492 0.62384 48.53 1.37708C50.0187 1.92589 51.3654 2.80174 52.4706 3.94009C53.6093 5.04574 54.4856 6.39271 55.0348 7.88183C55.7904 9.91961 56.1891 12.0724 56.2135 14.2456C56.3788 17.8607 56.4124 18.943 56.4124 28.0934C56.4124 37.2438 56.3788 38.3262 56.2135 41.9413C56.1873 44.1142 55.7886 46.2664 55.0348 48.3045C54.4645 49.7825 53.5912 51.1247 52.4709 52.2447C51.3505 53.3647 50.0081 54.2377 48.53 54.8076C46.4922 55.5632 44.3395 55.9619 42.1663 55.9864C38.5545 56.1516 37.4688 56.1852 28.3184 56.1852C19.168 56.1852 18.0856 56.1533 14.4738 55.9864" fill="url(#paint1_radial_20_22)"/>
<path d="M21.4215 28.2118C21.4216 26.8357 21.8298 25.4906 22.5944 24.3465C23.359 23.2024 24.4457 22.3107 25.7171 21.7842C26.9885 21.2577 28.3875 21.1201 29.7371 21.3887C31.0867 21.6573 32.3264 22.3201 33.2993 23.2932C34.2723 24.2664 34.9348 25.5062 35.203 26.8559C35.4713 28.2056 35.3334 29.6045 34.8066 30.8758C34.2798 32.1471 33.3878 33.2336 32.2436 33.9979C31.0993 34.7623 29.754 35.1701 28.3779 35.1699C26.5328 35.1696 24.7633 34.4364 23.4587 33.1315C22.1541 31.8266 21.4213 30.057 21.4215 28.2118ZM17.6599 28.2118C17.6599 30.3317 18.2885 32.4039 19.4662 34.1665C20.6439 35.929 22.3178 37.3028 24.2763 38.114C26.2348 38.9252 28.3898 39.1375 30.4689 38.7239C32.548 38.3104 34.4578 37.2896 35.9567 35.7906C37.4557 34.2917 38.4765 32.3819 38.89 30.3028C39.3036 28.2237 39.0913 26.0687 38.2801 24.1102C37.4689 22.1517 36.0951 20.4778 34.3326 19.3001C32.57 18.1224 30.4978 17.4938 28.3779 17.4938C26.9704 17.4937 25.5766 17.7709 24.2762 18.3095C22.9758 18.8481 21.7942 19.6376 20.7989 20.6329C19.8037 21.6281 19.0142 22.8097 18.4756 24.1101C17.937 25.4105 17.6598 26.8043 17.6599 28.2118ZM37.0155 17.0691C37.0153 17.5645 37.162 18.0488 37.437 18.4608C37.712 18.8728 38.103 19.194 38.5606 19.3837C39.0182 19.5735 39.5218 19.6233 40.0077 19.5269C40.4936 19.4305 40.9399 19.1921 41.2904 18.842C41.6408 18.4919 41.8795 18.0457 41.9764 17.5599C42.0733 17.0741 42.0239 16.5705 41.8345 16.1127C41.6451 15.655 41.3243 15.2637 40.9125 14.9883C40.5008 14.7129 40.0166 14.5658 39.5212 14.5656C38.8572 14.5659 38.2205 14.8297 37.7509 15.2991C37.2813 15.7685 37.0172 16.4051 37.0166 17.0691M19.9464 45.2022C18.6228 45.1876 17.3116 44.9454 16.0702 44.4861C15.1699 44.1391 14.3522 43.6074 13.6698 42.9253C12.9874 42.2432 12.4554 41.4258 12.108 40.5256C11.6485 39.2843 11.4063 37.973 11.392 36.6494C11.2906 34.4494 11.2708 33.7884 11.2708 28.2146C11.2708 22.6407 11.2928 21.9814 11.392 19.7792C11.408 18.4557 11.6502 17.1448 12.108 15.903C12.455 15.0024 12.9869 14.1845 13.6693 13.5021C14.3517 12.8197 15.1696 12.2878 16.0702 11.9409C17.3115 11.4814 18.6228 11.2391 19.9464 11.2248C22.1464 11.1234 22.8074 11.1036 28.379 11.1036C33.9507 11.1036 34.6122 11.1251 36.8144 11.2253C38.1379 11.2414 39.4488 11.4836 40.6906 11.9414C41.5912 12.2884 42.409 12.8203 43.0915 13.5027C43.7739 14.1851 44.3057 15.003 44.6528 15.9035C45.1122 17.1449 45.3545 18.4561 45.3688 19.7797C45.4702 21.9831 45.49 22.6407 45.49 28.2151C45.49 33.7895 45.4696 34.4483 45.3688 36.6505C45.3534 37.974 45.1112 39.2851 44.6528 40.5267C44.3054 41.4269 43.7734 42.2443 43.091 42.9264C42.4086 43.6085 41.5909 44.1402 40.6906 44.4872C39.4493 44.9467 38.138 45.1889 36.8144 45.2033C34.6144 45.3046 33.9534 45.3245 28.379 45.3245C22.8046 45.3245 22.1458 45.3041 19.9464 45.2033M19.7734 7.46647C18.0415 7.50053 16.3279 7.82832 14.7058 8.43592C13.319 8.97209 12.0597 9.79211 11.0084 10.8434C9.95709 11.8947 9.13706 13.1541 8.6009 14.5408C7.99339 16.163 7.66559 17.8765 7.63145 19.6084C7.52845 21.8338 7.50531 22.5454 7.50531 28.214C7.50531 33.8826 7.529 34.5938 7.63145 36.8197C7.66558 38.5515 7.99338 40.2651 8.6009 41.8873C9.13709 43.274 9.95712 44.5333 11.0084 45.5846C12.0597 46.6359 13.3191 47.4559 14.7058 47.9921C16.328 48.5995 18.0415 48.9273 19.7734 48.9616C21.9999 49.063 22.7104 49.0877 28.379 49.0877C34.0476 49.0877 34.7587 49.0641 36.9846 48.9616C38.7165 48.9274 40.4301 48.5996 42.0523 47.9921C43.439 47.4559 44.6983 46.6359 45.7496 45.5846C46.8009 44.5333 47.6209 43.274 48.1571 41.8873C48.7655 40.2653 49.0933 38.5516 49.1266 36.8197C49.228 34.5926 49.2511 33.8826 49.2511 28.214C49.2511 22.5454 49.2274 21.8343 49.1266 19.6084C49.0925 17.8765 48.7647 16.163 48.1571 14.5408C47.621 13.1543 46.8012 11.8951 45.7502 10.8439C44.6992 9.79263 43.4402 8.97246 42.0539 8.43592C40.4319 7.82793 38.7182 7.50012 36.9863 7.46647C34.7604 7.36457 34.0493 7.34033 28.3818 7.34033C22.7143 7.34033 22.0015 7.36402 19.7745 7.46647" fill="white"/>
</g>
<defs>
<radialGradient id="paint0_radial_20_22" cx="0" cy="0" r="1" gradientUnits="userSpaceOnUse" gradientTransform="translate(3.8632 54.9541) scale(71.3336)">
<stop offset="0.09" stop-color="#FA8F21"/>
<stop offset="0.78" stop-color="#D82D7E"/>
</radialGradient>
<radialGradient id="paint1_radial_20_22" cx="0" cy="0" r="1" gradientUnits="userSpaceOnUse" gradientTransform="translate(39.1444 53.1496) scale(62.7742)">
<stop offset="0.64" stop-color="#8C3AAA" stop-opacity="0"/>
<stop offset="1" stop-color="#8C3AAA"/>
</radialGradient>
<clipPath id="clip0_20_22">
<rect width="56.1847" height="56.1847" fill="white" transform="translate(0.227173)"/>
</clipPath>
</defs>
</svg>
