<svg width="52" height="52" viewBox="0 0 52 52" fill="none" xmlns="http://www.w3.org/2000/svg">
<path d="M51.6266 48.0752L34.8881 31.3367C37.4855 27.9787 38.8906 23.873 38.8906 19.5547C38.8906 14.3855 36.8732 9.53867 33.2252 5.88418C29.5771 2.22969 24.7174 0.21875 19.5547 0.21875C14.392 0.21875 9.53223 2.23613 5.88418 5.88418C2.22969 9.53223 0.21875 14.3855 0.21875 19.5547C0.21875 24.7174 2.23613 29.5771 5.88418 33.2252C9.53223 36.8797 14.3855 38.8906 19.5547 38.8906C23.873 38.8906 27.9723 37.4855 31.3303 34.8945L48.0688 51.6266C48.1178 51.6757 48.1761 51.7146 48.2402 51.7412C48.3044 51.7678 48.3731 51.7815 48.4426 51.7815C48.512 51.7815 48.5808 51.7678 48.6449 51.7412C48.709 51.7146 48.7673 51.6757 48.8164 51.6266L51.6266 48.8228C51.6757 48.7738 51.7146 48.7155 51.7412 48.6514C51.7678 48.5872 51.7815 48.5185 51.7815 48.449C51.7815 48.3796 51.7678 48.3108 51.7412 48.2467C51.7146 48.1826 51.6757 48.1243 51.6266 48.0752ZM29.7641 29.7641C27.0313 32.4904 23.409 33.9922 19.5547 33.9922C15.7004 33.9922 12.0781 32.4904 9.34531 29.7641C6.61895 27.0313 5.11719 23.409 5.11719 19.5547C5.11719 15.7004 6.61895 12.0717 9.34531 9.34531C12.0781 6.61895 15.7004 5.11719 19.5547 5.11719C23.409 5.11719 27.0377 6.6125 29.7641 9.34531C32.4904 12.0781 33.9922 15.7004 33.9922 19.5547C33.9922 23.409 32.4904 27.0377 29.7641 29.7641Z" fill="#828282"/>
</svg>
