<svg width="54" height="54" viewBox="0 0 54 54" fill="none" xmlns="http://www.w3.org/2000/svg">
<g clip-path="url(#clip0_20_38)">
<path d="M0.596466 40.0588V40.0612C0.628081 41.2329 0.637833 42.4113 0.835633 43.5758C1.04524 44.8078 1.34486 46.0092 1.9165 47.1273C2.68933 48.6408 3.7507 49.9188 5.09044 50.9629C6.05234 51.7125 7.10314 52.3076 8.26633 52.683C9.96247 53.2296 11.7123 53.4392 13.4877 53.4494C14.5953 53.4564 15.7023 53.4841 16.8103 53.4795C24.8573 53.4456 32.9045 53.5375 40.9517 53.4298C42.0196 53.4154 43.0699 53.2852 44.118 53.0937C46.1266 52.7263 47.9019 51.8699 49.4208 50.516C51.1909 48.9384 52.3852 47.0078 52.9243 44.6776C53.2771 43.1545 53.3654 41.6093 53.3805 40.0586V39.7493C53.3805 39.6293 53.3348 13.4012 53.3306 13.0546C53.3188 12.1023 53.2486 11.1571 53.0699 10.2201C52.8526 9.07824 52.5456 7.96562 51.9983 6.93259C51.4205 5.8412 50.6968 4.85986 49.8016 4.00232C48.4303 2.68846 46.8479 1.75933 45.0057 1.26784C43.3418 0.824044 41.6444 0.725787 39.9345 0.727326C39.9317 0.726916 39.9252 0.709582 39.9248 0.701172H14.0439C14.0434 0.709992 14.0431 0.718813 14.0425 0.727326C13.072 0.74507 12.1002 0.737787 11.1347 0.857378C10.077 0.988763 9.02951 1.18661 8.0284 1.55605C6.45154 2.13882 5.08151 3.04652 3.91124 4.25832C2.58535 5.63125 1.65075 7.21905 1.15486 9.06798C0.712457 10.7176 0.616175 12.4001 0.613814 14.0945" fill="#FFFC00"/>
<path d="M27.228 45.2347C27.1183 45.2347 27.0137 45.2307 26.9342 45.2269C26.8711 45.2323 26.8059 45.2347 26.7406 45.2347C24.4375 45.2347 22.8976 44.1468 21.5387 43.1862C20.5646 42.4987 19.6461 41.8497 18.5699 41.6708C18.0414 41.5832 17.5156 41.5388 17.0076 41.5388C16.0923 41.5388 15.369 41.6806 14.8409 41.7838C14.5159 41.8471 14.2356 41.9016 14.0191 41.9016C13.7922 41.9016 13.5166 41.8513 13.4017 41.4594C13.3107 41.1503 13.2454 40.8508 13.1824 40.5624C13.0247 39.8417 12.9104 39.4017 12.6403 39.36C9.75173 38.9147 8.04502 38.2587 7.70505 37.4642C7.67051 37.3848 7.65021 37.3 7.64511 37.2136C7.6387 37.0995 7.67474 36.987 7.74631 36.8978C7.81788 36.8086 7.91991 36.749 8.0328 36.7305C10.3268 36.353 12.3664 35.1415 14.0955 33.1285C15.435 31.57 16.0927 30.081 16.1634 29.9166C16.1665 29.909 16.17 29.9016 16.1737 29.8943C16.507 29.2186 16.5733 28.6347 16.3714 28.1593C15.9992 27.2823 14.7665 26.8915 13.951 26.633C13.7482 26.5689 13.5563 26.5081 13.4035 26.4475C12.6805 26.1622 11.4916 25.5593 11.65 24.7272C11.7653 24.1204 12.5686 23.6979 13.2177 23.6979C13.3979 23.6979 13.5577 23.7295 13.6921 23.7925C14.4256 24.1359 15.0856 24.31 15.6531 24.31C16.3589 24.31 16.6998 24.0415 16.7822 23.9651C16.7608 23.58 16.7376 23.195 16.7125 22.8101C16.5468 20.1767 16.3402 16.8996 17.1791 15.0203C19.6901 9.39492 25.0151 8.95748 26.5868 8.95748C26.8463 8.9553 27.1057 8.95287 27.3651 8.9502C28.9411 8.9502 34.2772 9.38815 36.7897 15.0169C37.6286 16.8974 37.4218 20.1773 37.2556 22.8135L37.2478 22.9396C37.225 23.2976 37.204 23.6363 37.1862 23.9647C37.2638 24.0361 37.5758 24.2823 38.2104 24.3072C38.7515 24.2865 39.3732 24.1133 40.0579 23.7929C40.2695 23.6937 40.5039 23.673 40.663 23.673C40.9035 23.673 41.1482 23.7198 41.3522 23.8048L41.363 23.809C41.944 24.0151 42.3245 24.4269 42.3327 24.8595C42.34 25.2628 42.0401 25.8656 40.5649 26.4477C40.4138 26.5075 40.221 26.5687 40.0173 26.6332C39.2011 26.892 37.9694 27.2826 37.5972 28.1591C37.395 28.6345 37.4615 29.2182 37.7949 29.8937C37.7986 29.9011 37.8018 29.9086 37.8054 29.9164C37.9081 30.1568 40.3926 35.8174 45.936 36.7299C46.0488 36.7486 46.1508 36.8082 46.2224 36.8974C46.2939 36.9866 46.33 37.099 46.3237 37.2131C46.3183 37.3003 46.2975 37.3859 46.2624 37.4659C45.9248 38.256 44.2182 38.9111 41.3288 39.357C41.0576 39.3989 40.9433 39.8368 40.7871 40.5538C40.7224 40.8499 40.6566 41.1401 40.5668 41.4451C40.4827 41.732 40.2957 41.8722 39.9954 41.8722H39.9501C39.7546 41.8722 39.4775 41.8367 39.1281 41.7684C38.5174 41.6497 37.8324 41.5391 36.9613 41.5391C36.4534 41.5391 35.9278 41.5836 35.3986 41.6711C34.3236 41.85 33.4051 42.498 32.4329 43.1847C31.0713 44.1467 29.5308 45.2347 27.228 45.2347Z" fill="white"/>
<path d="M27.365 9.4138C28.8487 9.4138 33.9581 9.81205 36.3658 15.2058C37.1587 16.9819 36.9554 20.1993 36.7924 22.7838C36.767 23.194 36.7417 23.5915 36.7212 23.9711L36.7126 24.1343L36.8216 24.2558C36.8656 24.3046 37.2778 24.735 38.1944 24.7704L38.2092 24.7712L38.2246 24.7709C38.8306 24.7478 39.5132 24.5597 40.2545 24.2127C40.3637 24.1617 40.5091 24.1367 40.6628 24.1367C40.8381 24.1367 41.0243 24.1697 41.1778 24.2343L41.201 24.2435C41.5897 24.3796 41.8645 24.6362 41.8687 24.8684C41.871 24.9997 41.7728 25.4726 40.3948 26.0165C40.2602 26.0697 40.0829 26.1262 39.8774 26.1909C38.9807 26.4754 37.6259 26.9048 37.17 27.9783C36.9133 28.583 36.9836 29.2967 37.3788 30.0991C37.5414 30.4783 40.101 36.2392 45.8606 37.1875C45.8586 37.2194 45.8506 37.2508 45.8371 37.2798C45.7394 37.5095 45.1189 38.3033 41.2578 38.8986C40.6536 38.9911 40.5056 39.6678 40.334 40.4545C40.272 40.7361 40.2089 41.0204 40.1223 41.314C40.0958 41.4028 40.0909 41.4078 39.9957 41.4078H39.9504C39.7792 41.4078 39.5193 41.3723 39.218 41.3132C38.6693 41.2065 37.9198 41.0755 36.9616 41.0755C36.4268 41.0755 35.8759 41.1219 35.3232 41.2141C34.1416 41.4105 33.1807 42.0895 32.1631 42.8083C30.7964 43.7732 29.3839 44.7717 27.2288 44.7717C27.1346 44.7717 27.0428 44.7685 26.9507 44.7639L26.9265 44.7629L26.9021 44.7647C26.8493 44.7693 26.796 44.7717 26.7416 44.7717C24.5867 44.7717 23.1736 43.7735 21.8076 42.8083C20.7897 42.0895 19.8283 41.4105 18.647 41.2141C18.0947 41.1223 17.5433 41.0755 17.0088 41.0755C16.0508 41.0755 15.3004 41.2219 14.7529 41.3289C14.4516 41.3878 14.1908 41.4383 14.0201 41.4383C13.8803 41.4383 13.8776 41.43 13.848 41.3291C13.7614 41.0353 13.6981 40.7442 13.6364 40.463C13.4643 39.6755 13.3162 38.9951 12.7124 38.9024C8.85151 38.3067 8.23091 37.5116 8.13298 37.2824C8.11967 37.2527 8.11164 37.2208 8.10927 37.1883C13.8688 36.2408 16.4279 30.4797 16.591 30.0991C16.9869 29.2973 17.0571 28.5837 16.7995 27.9783C16.3436 26.9054 14.9891 26.4754 14.093 26.1914C13.8869 26.1263 13.7096 26.0697 13.5748 26.0165C12.4112 25.5572 12.0533 25.0944 12.1064 24.814C12.1681 24.4906 12.7292 24.1618 13.2188 24.1618C13.3289 24.1618 13.4253 24.1795 13.4967 24.2128C14.2919 24.5853 15.0178 24.7741 15.6545 24.7741C16.6554 24.7741 17.1009 24.3087 17.1487 24.2556L17.2572 24.1344L17.2485 23.972C17.2283 23.5926 17.2034 23.1952 17.1771 22.7859C17.0146 20.2007 16.8113 16.9855 17.6039 15.2093C20.0027 9.83534 25.0871 9.42108 26.588 9.42108C26.625 9.42108 27.2775 9.41441 27.2775 9.41441C27.3042 9.41421 27.3339 9.4138 27.365 9.4138ZM27.365 8.48682H27.3632C27.329 8.48682 27.2969 8.48682 27.2663 8.48723L26.5855 8.494C25.7062 8.494 23.9469 8.6181 22.0572 9.45154C20.9767 9.92775 20.0049 10.5716 19.1687 11.3654C18.1718 12.3111 17.3597 13.4772 16.7553 14.8317C15.8702 16.8149 16.0803 20.1553 16.249 22.8397L16.2497 22.8439C16.2677 23.1314 16.2867 23.4316 16.3041 23.7241C16.1742 23.7837 15.9637 23.8466 15.6534 23.8466C15.1541 23.8466 14.5604 23.6871 13.8892 23.3728C13.6917 23.2809 13.4663 23.2345 13.2176 23.2345C12.818 23.2345 12.3967 23.352 12.0313 23.5667C11.5715 23.8364 11.2745 24.2177 11.1938 24.6403C11.1406 24.9199 11.1432 25.4725 11.7575 26.033C12.0955 26.3415 12.5918 26.626 13.2326 26.879C13.4007 26.9452 13.6002 27.0083 13.8116 27.0753C14.545 27.3082 15.655 27.6601 15.9445 28.3409C16.0912 28.686 16.028 29.1401 15.7574 29.6891C15.7503 29.704 15.7432 29.7187 15.7367 29.7341C15.6691 29.8919 15.038 31.3203 13.7435 32.8266C13.008 33.6832 12.1978 34.3991 11.3368 34.955C10.2859 35.6337 9.14877 36.0774 7.95735 36.2735C7.73146 36.3106 7.52726 36.4298 7.38403 36.6082C7.24079 36.7867 7.16864 37.0117 7.18145 37.2401C7.18945 37.3765 7.22148 37.5125 7.27701 37.6441L7.27834 37.6464C7.46752 38.0886 7.90613 38.4642 8.61922 38.7955C9.49059 39.1999 10.7938 39.5401 12.4923 39.8062C12.5781 39.9693 12.6672 40.3792 12.7289 40.6598C12.7934 40.958 12.8608 41.2647 12.9568 41.5905C13.0603 41.9434 13.329 42.3651 14.019 42.3651C14.2806 42.3651 14.5813 42.3063 14.9296 42.2388C15.4397 42.1388 16.1372 42.0024 17.0077 42.0024C17.4904 42.0024 17.9906 42.0448 18.494 42.1284C19.4646 42.2898 20.3012 42.8804 21.2693 43.5643C22.6862 44.5651 24.2901 45.698 26.7406 45.698C26.8074 45.698 26.8744 45.6958 26.9406 45.6912C27.0216 45.695 27.122 45.698 27.2279 45.698C29.6791 45.698 31.2826 44.5647 32.698 43.5647L32.7002 43.5627C33.6685 42.8796 34.5042 42.2898 35.4745 42.1284C35.9777 42.0449 36.4778 42.0024 36.9607 42.0024C37.7923 42.0024 38.4508 42.1083 39.0388 42.2229C39.4225 42.2984 39.7206 42.3347 39.9494 42.3347L39.9718 42.3351H39.995C40.4997 42.3351 40.8706 42.0583 41.0121 41.5738C41.1062 41.255 41.1733 40.9555 41.2395 40.6522C41.2972 40.3892 41.3894 39.9677 41.4752 39.8029C43.1748 39.5362 44.4775 39.1967 45.349 38.7924C46.0604 38.4627 46.4985 38.0875 46.6888 37.6472C46.7459 37.5152 46.7792 37.3783 46.7867 37.2391C46.7996 37.0107 46.7274 36.7856 46.5842 36.6071C46.4409 36.4287 46.2367 36.3095 46.0107 36.2725C40.7157 35.4005 38.3303 29.9641 38.2317 29.7332C38.2252 29.7179 38.2182 29.703 38.2106 29.6883C37.9399 29.1391 37.8774 28.6855 38.0242 28.3397C38.313 27.6596 39.4224 27.3077 40.1563 27.0749C40.3688 27.008 40.569 26.9444 40.7358 26.8786C41.4583 26.5935 41.9748 26.2841 42.3155 25.9328C42.7223 25.5141 42.8016 25.1128 42.7967 24.8503C42.7842 24.215 42.2982 23.6505 41.5251 23.3741C41.2639 23.2662 40.9662 23.2092 40.6629 23.2092C40.4565 23.2092 40.1508 23.2376 39.8615 23.3725C39.242 23.6622 38.6871 23.8205 38.2107 23.8431C37.9574 23.8303 37.7797 23.7754 37.6646 23.723C37.6791 23.4752 37.6951 23.2206 37.7116 22.9552L37.7185 22.8416C37.8882 20.1554 38.099 16.8124 37.2135 14.8278C36.6066 13.4685 35.7915 12.2994 34.7906 11.3517C33.9512 10.5574 32.976 9.91359 31.8917 9.43769C30.0046 8.61041 28.2455 8.48682 27.365 8.48682Z" fill="#020202"/>
</g>
<defs>
<clipPath id="clip0_20_38">
<rect width="52.7841" height="52.7841" fill="white" transform="translate(0.596466 0.700195)"/>
</clipPath>
</defs>
</svg>
