<svg width="57" height="57" viewBox="0 0 57 57" fill="none" xmlns="http://www.w3.org/2000/svg">
<g clip-path="url(#clip0_20_26)">
<path d="M0.411804 0H56.5965V56.1846H0.411804V0Z" fill="black"/>
<path d="M14.1767 34.996L14.2873 35.319C14.2752 35.2836 14.232 35.1713 14.1767 34.996ZM18.7344 27.6288C18.7948 26.883 19.0225 26.1604 19.4006 25.5148C19.7787 24.8691 20.2975 24.317 20.9184 23.8995C22.7723 22.544 25.0829 23.3094 25.0829 23.3094V18.7512C25.6444 18.7369 26.2061 18.7721 26.7614 18.8563V24.7186C26.7614 24.7186 24.4508 23.9532 22.597 25.3087C21.976 25.7262 21.4572 26.2783 21.0791 26.9239C20.701 27.5696 20.4733 28.2922 20.413 29.038C20.3689 30.198 20.7015 31.3411 21.3609 32.2965C21.164 32.1915 20.9677 32.072 20.7641 31.9382C20.0939 31.4455 19.5572 30.7934 19.2028 30.0409C18.8484 29.2883 18.6874 28.4593 18.7344 27.6288ZM36.3215 10.3238C35.323 9.20804 34.6543 7.83664 34.3903 6.36279H35.9941C35.9249 8.34924 36.6474 10.2819 38.0028 11.7357L38.0382 11.7705C37.4081 11.3624 36.832 10.8763 36.3237 10.3238H36.3215ZM44.0399 14.4534V20.1985C42.841 20.1437 41.6494 19.9816 40.4794 19.714C39.2622 19.4026 38.0945 18.9227 37.0101 18.2883C37.0101 18.2883 36.0699 17.6705 35.9985 17.6279V29.497C35.9591 30.7553 35.7221 31.9995 35.2962 33.1842C34.2871 35.7945 32.3024 37.9101 29.7618 39.0836C28.3786 39.7207 26.874 40.0513 25.3512 40.0526C23.2406 40.0463 21.1771 39.4292 19.4097 38.2756C18.7997 37.8548 18.2306 37.3774 17.7102 36.8498L17.724 36.8636C19.4896 38.021 21.5543 38.6385 23.6655 38.6406C25.1883 38.6393 26.6929 38.3088 28.0761 37.6717C30.6167 36.4982 32.6014 34.3826 33.6105 31.7722C34.0364 30.5876 34.2734 29.3433 34.3128 28.085V16.2232C34.3903 16.2652 35.3244 16.8835 35.3244 16.8835C36.4088 17.518 37.5765 17.9978 38.7937 18.3093C39.9637 18.5768 41.1553 18.739 42.3542 18.7938V14.2919C42.9039 14.4331 43.4723 14.4876 44.0388 14.4534H44.0399Z" fill="#EE1D52"/>
<path d="M42.3548 14.2847V18.7866C41.1559 18.7318 39.9642 18.5696 38.7942 18.3021C37.5771 17.9907 36.4094 17.5108 35.3249 16.8763C35.3249 16.8763 34.3848 16.2586 34.3134 16.216V28.0851C34.274 29.3433 34.037 30.5876 33.611 31.7723C32.602 34.3826 30.6173 36.4982 28.0766 37.6717C26.6935 38.3088 25.1889 38.6393 23.666 38.6406C21.5555 38.6344 19.4919 38.0173 17.7246 36.8637L17.7108 36.8498C17.4156 36.5489 17.1366 36.2325 16.8751 35.9019C16.2106 35.0233 15.6761 34.0536 15.2878 33.0227V33.0155C14.8651 31.7817 14.6538 30.4854 14.6629 29.1812C14.6932 27.4812 15.1342 25.8137 15.9482 24.321C16.5973 23.1689 17.4408 22.1377 18.4413 21.2731C19.3255 20.5281 20.327 19.9347 21.4052 19.5172C22.5711 19.0262 23.8203 18.7634 25.0852 18.7429V23.3006C25.0852 23.3006 22.7745 22.5352 20.9207 23.8907C20.2584 24.3265 19.7123 24.9172 19.3297 25.6117C18.9471 26.3061 18.7395 27.0833 18.725 27.8761C18.7104 28.6688 18.8893 29.4531 19.2462 30.1611C19.6031 30.8691 20.1271 31.4794 20.773 31.9393C20.9765 32.0726 21.1734 32.192 21.3698 32.2977C22.0466 33.1986 23.0107 33.8414 24.1026 34.1198C25.1945 34.3982 26.3487 34.2954 27.3743 33.8285C27.9693 33.5685 28.5027 33.1858 28.9396 32.7053C29.3765 32.2249 29.707 31.6576 29.9095 31.0406C30.1288 30.2936 30.2167 29.5142 30.1694 28.7371V6.36279H34.3831C34.644 7.83768 35.313 9.20991 36.3144 10.3238C36.8258 10.873 37.4014 11.3588 38.0288 11.7705C38.7068 12.4975 39.5021 13.1053 40.3815 13.5685C41.0088 13.8846 41.6711 14.1259 42.3548 14.2875V14.2847Z" fill="white"/>
<path d="M13.6082 31.6318L13.7133 31.9338C13.6994 31.899 13.6574 31.7933 13.6082 31.6318Z" fill="#69C9D0"/>
<path d="M21.404 19.5246C20.3251 19.9405 19.3233 20.534 18.4402 21.2805C17.4375 22.1458 16.5937 23.1797 15.9471 24.3356C15.1318 25.8278 14.6908 27.4956 14.6618 29.1958C14.6555 30.5 14.8667 31.796 15.2867 33.0307V33.0379C15.6765 34.0681 16.2109 35.0375 16.874 35.9171C17.1355 36.2477 17.4144 36.5641 17.7096 36.865C16.7583 36.2059 15.9088 35.4108 15.1883 34.5051C14.5248 33.6321 13.9925 32.6668 13.6082 31.6397V31.6259C13.1814 30.3907 12.97 29.0913 12.9832 27.7844C13.0136 26.0844 13.4545 24.4169 14.2685 22.9242C14.9152 21.7683 15.759 20.7344 16.7617 19.8691C17.8989 18.8977 19.2297 18.1792 20.6658 17.7615C22.1019 17.3437 23.6104 17.2363 25.0912 17.4462V18.7525C23.8239 18.7722 22.5722 19.035 21.404 19.5268V19.5246Z" fill="#69C9D0"/>
<path d="M34.3897 6.36305H30.176V28.7385C30.2198 29.5155 30.132 30.2943 29.9161 31.0419C29.7103 31.6572 29.3785 32.2229 28.9421 32.7029C28.5056 33.1829 27.9739 33.5667 27.3809 33.8299C26.5974 34.2108 25.724 34.3685 24.8567 34.2854C23.9894 34.2024 23.1618 33.8819 22.4648 33.3592C22.0461 33.072 21.6782 32.7168 21.3764 32.3084C22.0345 32.6725 22.7707 32.8726 23.5226 32.8918C24.2744 32.9111 25.0198 32.7489 25.6957 32.419C26.2902 32.158 26.823 31.7749 27.2598 31.2946C27.6965 30.8143 28.0274 30.2476 28.2309 29.6311C28.4502 28.8841 28.5382 28.1047 28.4909 27.3276V4.95166H34.3129C34.2705 5.42337 34.2964 5.89873 34.3897 6.36305ZM42.3537 13.0417V14.285C40.6886 13.9088 39.1789 13.0313 38.0277 11.7708C38.2456 11.9113 38.463 12.0379 38.6947 12.1579C39.8208 12.7553 41.0791 13.0594 42.3537 13.0423V13.0417Z" fill="#69C9D0"/>
<path d="M34.5297 48.7951C34.5284 48.9547 34.5521 49.1135 34.5999 49.2658C34.5999 49.2796 34.6071 49.2868 34.6071 49.3006C34.7199 49.663 34.9457 49.9799 35.2515 50.2048C35.5573 50.4296 35.927 50.5508 36.3066 50.5505V52.3485C35.4513 52.4363 34.5902 52.2493 33.8483 51.8148C33.3178 51.4858 32.8826 51.0237 32.5859 50.4745C32.2892 49.9253 32.1413 49.308 32.1568 48.684C32.1724 48.06 32.351 47.4509 32.6748 46.9172C32.9986 46.3835 33.4563 45.9437 34.0026 45.6416C34.7175 45.2846 35.517 45.1316 36.3133 45.1992V46.9972C36.0798 46.9968 35.8486 47.0425 35.6328 47.1317C35.4171 47.2208 35.221 47.3517 35.0559 47.5168C34.8909 47.6819 34.76 47.8779 34.6708 48.0937C34.5816 48.3094 34.5359 48.5407 34.5363 48.7741L34.5297 48.7951Z" fill="#69C9D0"/>
<path d="M38.0974 48.7953C38.0987 48.9548 38.075 49.1137 38.0271 49.2659C38.0271 49.2797 38.0199 49.2869 38.0199 49.3008C37.9071 49.6632 37.6813 49.98 37.3755 50.2049C37.0697 50.4298 36.7 50.5509 36.3204 50.5507V52.3487C37.1735 52.4364 38.0322 52.2494 38.7715 51.8149C39.2947 51.4993 39.7266 51.0528 40.0246 50.5194C40.3226 49.986 40.4765 49.3841 40.4711 48.7732C40.4734 48.1331 40.303 47.5044 39.9779 46.9531C39.6528 46.4018 39.1851 45.9484 38.6239 45.6407C37.909 45.2837 37.1095 45.1306 36.3132 45.1982V46.9962C36.5467 46.9958 36.7779 47.0415 36.9937 47.1307C37.2094 47.2199 37.4055 47.3508 37.5705 47.5159C37.7356 47.6809 37.8665 47.8769 37.9557 48.0927C38.0448 48.3085 38.0905 48.5397 38.0902 48.7732V48.7942L38.0974 48.7953Z" fill="#EE1D52"/>
<path d="M8.80438 43.5713H15.3857L14.7774 45.3831H13.0568V52.315H10.9392V45.3831H8.80438V43.5713ZM26.2499 43.5713V45.3831H28.3847V52.315H30.5056V45.3831H32.2262L32.8345 43.5713H26.2499ZM16.8181 45.6292C17.0209 45.6292 17.2192 45.569 17.3878 45.4564C17.5564 45.3437 17.6878 45.1836 17.7654 44.9962C17.843 44.8089 17.8633 44.6027 17.8238 44.4038C17.7842 44.2049 17.6866 44.0222 17.5432 43.8788C17.3998 43.7354 17.2171 43.6377 17.0182 43.5982C16.8193 43.5586 16.6131 43.5789 16.4257 43.6565C16.2384 43.7341 16.0782 43.8656 15.9656 44.0342C15.8529 44.2028 15.7928 44.401 15.7928 44.6038C15.7923 44.7386 15.8185 44.872 15.8699 44.9966C15.9212 45.1212 15.9967 45.2344 16.0919 45.3297C16.1872 45.4249 16.3003 45.5005 16.4248 45.5519C16.5494 45.6033 16.6828 45.6295 16.8176 45.6292H16.8181ZM15.7922 52.3095H17.8711V46.3526H15.7922V52.3095ZM25.3434 45.5816H22.9133L20.8206 47.6744V43.5713H18.756L18.7488 52.3007H20.8349V50.0254L21.4809 49.4336L23.5034 52.299H25.7278L22.7966 48.1135L25.3434 45.5816ZM45.2749 48.1257L47.8189 45.5816H45.3888L43.2961 47.6744V43.5713H41.2299L41.216 52.3095H43.3022V50.0342L43.9553 49.4441L45.9778 52.3095H48.2044L45.2749 48.1257ZM39.9302 48.7716C39.94 49.4904 39.7357 50.1959 39.3435 50.7983C38.9512 51.4008 38.3887 51.8729 37.7274 52.1548C37.0661 52.4367 36.3359 52.5155 35.6297 52.3813C34.9234 52.247 34.2731 51.9058 33.7613 51.401C33.2495 50.8961 32.8994 50.2505 32.7555 49.5462C32.6117 48.8418 32.6805 48.1107 32.9533 47.4456C33.2261 46.7805 33.6905 46.2115 34.2875 45.8111C34.8846 45.4106 35.5872 45.1968 36.306 45.1967C37.2605 45.1901 38.1785 45.5628 38.8582 46.2329C39.538 46.9029 39.9237 47.8155 39.9307 48.77L39.9302 48.7716ZM38.083 48.7716C38.083 48.4202 37.9788 48.0766 37.7835 47.7844C37.5883 47.4922 37.3107 47.2644 36.986 47.1299C36.6614 46.9955 36.3041 46.9602 35.9594 47.0288C35.6147 47.0974 35.298 47.2666 35.0495 47.5151C34.801 47.7636 34.6318 48.0803 34.5632 48.4249C34.4947 48.7696 34.5298 49.1269 34.6643 49.4516C34.7988 49.7763 35.0266 50.0538 35.3188 50.2491C35.611 50.4444 35.9546 50.5486 36.306 50.5486C36.5397 50.549 36.7711 50.5033 36.987 50.4141C37.203 50.3248 37.3991 50.1938 37.5643 50.0285C37.7295 49.8633 37.8603 49.667 37.9495 49.4511C38.0386 49.2351 38.0841 49.0036 38.0835 48.77L38.083 48.7716Z" fill="white"/>
</g>
<defs>
<clipPath id="clip0_20_26">
<rect x="0.411804" width="56.1847" height="56.1847" rx="20" fill="white"/>
</clipPath>
</defs>
</svg>
