<svg width="52" height="52" viewBox="0 0 52 52" fill="none" xmlns="http://www.w3.org/2000/svg">
<g clip-path="url(#clip0_20_43)">
<path d="M39.729 0.478516H11.4982C5.1479 0.478516 0 5.62642 0 11.9767V40.2075C0 46.5578 5.1479 51.7057 11.4982 51.7057H39.729C46.0793 51.7057 51.2272 46.5578 51.2272 40.2075V11.9767C51.2272 5.62642 46.0793 0.478516 39.729 0.478516Z" fill="#00C7FF"/>
<path fill-rule="evenodd" clip-rule="evenodd" d="M20.8316 32.6132C19.6214 32.5832 18.4504 32.1778 17.4808 31.453C16.5112 30.7281 15.7909 29.7198 15.4196 28.5676C16.2436 28.7501 17.0976 28.7501 17.9215 28.5676C17.1422 28.3844 16.4091 28.0425 15.7679 27.5632C15.1268 27.0838 14.5914 26.4774 14.1953 25.7817C13.6158 24.8514 13.3199 23.7723 13.3436 22.6765C14.139 23.1144 15.0267 23.3576 15.9342 23.3863C14.7164 22.5482 13.8606 21.2804 13.5388 19.8375C13.2134 18.4033 13.4482 16.8989 14.1953 15.6321C15.6569 17.4343 17.4789 18.9113 19.5445 19.9685C21.61 21.0258 23.8736 21.6399 26.1903 21.7716C26.1903 21.5409 26.1903 21.3457 26.1016 21.1328C25.942 19.9251 26.1654 18.6977 26.7403 17.6237C27.3152 16.5497 28.2127 15.6831 29.3062 15.1461C30.3997 14.6092 31.6341 14.4289 32.8355 14.6307C34.0369 14.8325 35.1447 15.4062 36.0028 16.2709C36.04 16.312 36.0879 16.342 36.1411 16.3577C36.1943 16.3733 36.2508 16.374 36.3044 16.3596C37.4945 16.1065 38.638 15.6695 39.6935 15.0643C39.2695 16.3648 38.4112 17.48 37.2626 18.2228C38.3826 18.0983 39.4774 17.8051 40.5098 17.3533L39.9242 18.2228C39.3087 18.9784 38.5991 19.6523 37.8127 20.2278C37.7834 20.2468 37.7597 20.2732 37.7441 20.3044C37.7285 20.3357 37.7215 20.3705 37.7239 20.4053C37.758 21.2703 37.7224 22.1366 37.6175 22.9959C37.3914 24.7918 36.8824 26.5406 36.1092 28.1772C35.326 29.8735 34.2644 31.4269 32.9685 32.7729C30.8081 35.0266 28.0198 36.5784 24.9659 37.2267C23.8982 37.4586 22.811 37.5893 21.7188 37.617C18.4393 37.7292 15.2012 36.8579 12.4209 35.1151L12.2789 35.0264C14.2466 35.2386 16.236 34.9518 18.0635 34.1924C19.0545 33.796 19.986 33.2646 20.8316 32.6132Z" fill="white"/>
</g>
<defs>
<clipPath id="clip0_20_43">
<rect width="51.2272" height="51.2272" fill="white" transform="translate(0 0.478516)"/>
</clipPath>
</defs>
</svg>
